<?xml version="1.0" encoding="UTF-8" standalone="no"?>
<!-- Created with Inkscape (http://www.inkscape.org/) -->

<svg
   xmlns:dc="http://purl.org/dc/elements/1.1/"
   xmlns:cc="http://creativecommons.org/ns#"
   xmlns:rdf="http://www.w3.org/1999/02/22-rdf-syntax-ns#"
   xmlns:svg="http://www.w3.org/2000/svg"
   xmlns="http://www.w3.org/2000/svg"
   xmlns:sodipodi="http://sodipodi.sourceforge.net/DTD/sodipodi-0.dtd"
   xmlns:inkscape="http://www.inkscape.org/namespaces/inkscape"
   id="svg2"
   version="1.1"
   inkscape:version="0.91 r13725"
   xml:space="preserve"
   width="813.91132"
   height="673.30231"
   viewBox="0 0 813.91132 673.30231"
   sodipodi:docname="confidence-interval.svg"
   inkscape:export-filename="/home/simen/Dropbox/phd/presentations/presentations/uncertainpy/confidence_interval.png"
   inkscape:export-xdpi="90"
   inkscape:export-ydpi="90"><metadata
     id="metadata8"><rdf:RDF><cc:Work
         rdf:about=""><dc:format>image/svg+xml</dc:format><dc:type
           rdf:resource="http://purl.org/dc/dcmitype/StillImage" /><dc:title></dc:title></cc:Work></rdf:RDF></metadata><defs
     id="defs6"><clipPath
       clipPathUnits="userSpaceOnUse"
       id="clipPath20"><path
         d="m 74.441739,54.103137 558.000001,0 0,432.000003 -558.000001,0 0,-432.000003 z"
         id="path22"
         inkscape:connector-curvature="0" /></clipPath><clipPath
       clipPathUnits="userSpaceOnUse"
       id="clipPath38"><path
         d="m 74.441739,54.103137 558.000001,0 0,432.000003 -558.000001,0 0,-432.000003 z"
         id="path40"
         inkscape:connector-curvature="0" /></clipPath><clipPath
       clipPathUnits="userSpaceOnUse"
       id="clipPath56"><path
         d="m 74.441739,54.103137 558.000001,0 0,432.000003 -558.000001,0 0,-432.000003 z"
         id="path58"
         inkscape:connector-curvature="0" /></clipPath><clipPath
       clipPathUnits="userSpaceOnUse"
       id="clipPath74"><path
         d="m 74.441739,54.103137 558.000001,0 0,432.000003 -558.000001,0 0,-432.000003 z"
         id="path76"
         inkscape:connector-curvature="0" /></clipPath><clipPath
       clipPathUnits="userSpaceOnUse"
       id="clipPath92"><path
         d="m 74.441739,54.103137 558.000001,0 0,432.000003 -558.000001,0 0,-432.000003 z"
         id="path94"
         inkscape:connector-curvature="0" /></clipPath><clipPath
       clipPathUnits="userSpaceOnUse"
       id="clipPath110"><path
         d="m 74.441739,54.103137 558.000001,0 0,432.000003 -558.000001,0 0,-432.000003 z"
         id="path112"
         inkscape:connector-curvature="0" /></clipPath><clipPath
       clipPathUnits="userSpaceOnUse"
       id="clipPath128"><path
         d="m 74.441739,54.103137 558.000001,0 0,432.000003 -558.000001,0 0,-432.000003 z"
         id="path130"
         inkscape:connector-curvature="0" /></clipPath><clipPath
       clipPathUnits="userSpaceOnUse"
       id="clipPath146"><path
         d="m 74.441739,54.103137 558.000001,0 0,432.000003 -558.000001,0 0,-432.000003 z"
         id="path148"
         inkscape:connector-curvature="0" /></clipPath><clipPath
       clipPathUnits="userSpaceOnUse"
       id="clipPath168"><path
         d="m 74.441739,54.103137 558.000001,0 0,432.000003 -558.000001,0 0,-432.000003 z"
         id="path170"
         inkscape:connector-curvature="0" /></clipPath><clipPath
       clipPathUnits="userSpaceOnUse"
       id="clipPath190"><path
         d="m 74.441739,54.103137 558.000001,0 0,432.000003 -558.000001,0 0,-432.000003 z"
         id="path192"
         inkscape:connector-curvature="0" /></clipPath><clipPath
       clipPathUnits="userSpaceOnUse"
       id="clipPath212"><path
         d="m 74.441739,54.103137 558.000001,0 0,432.000003 -558.000001,0 0,-432.000003 z"
         id="path214"
         inkscape:connector-curvature="0" /></clipPath><clipPath
       clipPathUnits="userSpaceOnUse"
       id="clipPath234"><path
         d="m 74.441739,54.103137 558.000001,0 0,432.000003 -558.000001,0 0,-432.000003 z"
         id="path236"
         inkscape:connector-curvature="0" /></clipPath><clipPath
       clipPathUnits="userSpaceOnUse"
       id="clipPath256"><path
         d="m 74.441739,54.103137 558.000001,0 0,432.000003 -558.000001,0 0,-432.000003 z"
         id="path258"
         inkscape:connector-curvature="0" /></clipPath><clipPath
       clipPathUnits="userSpaceOnUse"
       id="clipPath278"><path
         d="m 74.441739,54.103137 558.000001,0 0,432.000003 -558.000001,0 0,-432.000003 z"
         id="path280"
         inkscape:connector-curvature="0" /></clipPath><clipPath
       clipPathUnits="userSpaceOnUse"
       id="clipPath296"><path
         d="m 74.441739,54.103137 558.000001,0 0,432.000003 -558.000001,0 0,-432.000003 z"
         id="path298"
         inkscape:connector-curvature="0" /></clipPath><clipPath
       clipPathUnits="userSpaceOnUse"
       id="clipPath314"><path
         d="m 74.441739,54.103137 558.000001,0 0,432.000003 -558.000001,0 0,-432.000003 z"
         id="path316"
         inkscape:connector-curvature="0" /></clipPath><clipPath
       clipPathUnits="userSpaceOnUse"
       id="clipPath332"><path
         d="m 74.441739,54.103137 558.000001,0 0,432.000003 -558.000001,0 0,-432.000003 z"
         id="path334"
         inkscape:connector-curvature="0" /></clipPath><clipPath
       clipPathUnits="userSpaceOnUse"
       id="clipPath354"><path
         d="m 74.441739,54.103137 558.000001,0 0,432.000003 -558.000001,0 0,-432.000003 z"
         id="path356"
         inkscape:connector-curvature="0" /></clipPath><clipPath
       clipPathUnits="userSpaceOnUse"
       id="clipPath370"><path
         d="m 74.441739,54.103137 558.000001,0 0,432.000003 -558.000001,0 0,-432.000003 z"
         id="path372"
         inkscape:connector-curvature="0" /></clipPath></defs><sodipodi:namedview
     pagecolor="#ffffff"
     bordercolor="#666666"
     borderopacity="1"
     objecttolerance="10"
     gridtolerance="10"
     guidetolerance="10"
     inkscape:pageopacity="0"
     inkscape:pageshadow="2"
     inkscape:window-width="1920"
     inkscape:window-height="1056"
     id="namedview4"
     showgrid="false"
     inkscape:zoom="0.96935867"
     inkscape:cx="397.72357"
     inkscape:cy="353.40446"
     inkscape:window-x="0"
     inkscape:window-y="24"
     inkscape:window-maximized="1"
     inkscape:current-layer="g376"
     fit-margin-top="0"
     fit-margin-left="0"
     fit-margin-right="0"
     fit-margin-bottom="0" /><g
     id="g10"
     inkscape:groupmode="layer"
     inkscape:label="directComparison_confidence-interval"
     transform="matrix(1.25,0,0,-1.25,14.425077,654.19506)"><g
       id="g4854"
       transform="translate(0,14.279588)"><text
         transform="matrix(0,1,1,0,0,0)"
         style="font-variant:normal;font-weight:normal;font-size:15.94022369px;line-height:125%;font-family:LMRoman17;-inkscape-font-specification:LMRoman17-Regular;writing-mode:lr-tb;fill:#000000;fill-opacity:1;fill-rule:nonzero;stroke:none"
         id="text346"
         sodipodi:linespacing="125%"
         x="194.92398"
         y="17.85994"><tspan
           x="194.92398"
           y="17.85994"
           sodipodi:role="line"
           id="tspan348"
           style="font-style:normal;font-variant:normal;font-weight:normal;font-stretch:normal;font-size:20px;line-height:125%;font-family:LMRoman17;-inkscape-font-specification:'LMRoman17, Normal';text-align:start;writing-mode:lr-tb;text-anchor:start">Voltage [mv]</tspan></text>
</g><g
       id="g4975"
       transform="matrix(1.0026239,0,0,1.0026239,-0.87819391,-0.67914793)"><path
         inkscape:connector-curvature="0"
         id="path340"
         style="fill:#999999;fill-opacity:1;fill-rule:nonzero;stroke:#999999;stroke-width:1;stroke-linecap:butt;stroke-linejoin:round;stroke-miterlimit:10;stroke-dasharray:none;stroke-opacity:1"
         d="m 74.441739,486.10314 -5,0" /><text
         y="-482.20801"
         x="47.820633"
         id="text342"
         style="font-variant:normal;font-weight:normal;font-size:15.94022369px;font-family:LMRoman17;-inkscape-font-specification:LMRoman17-Regular;writing-mode:lr-tb;fill:#000000;fill-opacity:1;fill-rule:nonzero;stroke:none"
         transform="scale(1,-1)"><tspan
           id="tspan344"
           sodipodi:role="line"
           y="-482.20801"
           x="47.820633 55.121258">60</tspan></text>
<g
         id="g4862"><g
           id="g152"
           transform="translate(14.859063,9.6)"><text
             transform="scale(1,-1)"
             style="font-variant:normal;font-weight:normal;font-size:15.94022369px;line-height:125%;font-family:LMRoman17;-inkscape-font-specification:LMRoman17-Regular;writing-mode:lr-tb;fill:#000000;fill-opacity:1;fill-rule:nonzero;stroke:none"
             id="text160"
             x="280.09299"
             y="10.285807"
             sodipodi:linespacing="125%"><tspan
               x="280.09299"
               y="10.285807"
               sodipodi:role="line"
               id="tspan162"
               style="font-style:normal;font-variant:normal;font-weight:normal;font-stretch:normal;font-size:20px;line-height:125%;font-family:LMRoman17;-inkscape-font-specification:'LMRoman17, Normal';text-align:start;writing-mode:lr-tb;text-anchor:start">Time [ms]</tspan></text>
</g><g
           id="g376"
           transform="translate(-12.379319,122.14261)"><g
             id="g4718"><g
               id="g4539"
               transform="translate(12.379319,-122.14261)"><g
                 id="g16"><g
                   id="g18"
                   clip-path="url(#clipPath20)"><path
                     d="m 74.441739,54.103137 0,432.000003"
                     style="fill:none;stroke:#ffffff;stroke-width:1;stroke-linecap:round;stroke-linejoin:round;stroke-miterlimit:10;stroke-dasharray:none;stroke-opacity:1"
                     id="path24"
                     inkscape:connector-curvature="0" /></g></g><g
                 id="g26"><path
                   d="m 74.441739,54.103137 0,-5"
                   style="fill:#999999;fill-opacity:1;fill-rule:nonzero;stroke:#999999;stroke-width:1;stroke-linecap:butt;stroke-linejoin:round;stroke-miterlimit:10;stroke-dasharray:none;stroke-opacity:1"
                   id="path28"
                   inkscape:connector-curvature="0" /><text
                   transform="matrix(1,0,0,-1,70.786463,31.212489)"
                   style="font-variant:normal;font-weight:normal;font-size:15.94022369px;font-family:LMRoman17;-inkscape-font-specification:LMRoman17-Regular;writing-mode:lr-tb;fill:#000000;fill-opacity:1;fill-rule:nonzero;stroke:none"
                   id="text30"><tspan
                     x="0"
                     y="0"
                     id="tspan32">0</tspan></text>
</g><g
                 id="g44"><path
                   d="m 154.15602,54.103137 0,-5"
                   style="fill:#999999;fill-opacity:1;fill-rule:nonzero;stroke:#999999;stroke-width:1;stroke-linecap:butt;stroke-linejoin:round;stroke-miterlimit:10;stroke-dasharray:none;stroke-opacity:1"
                   id="path46"
                   inkscape:connector-curvature="0" /><text
                   transform="matrix(1,0,0,-1,150.50075,31.212489)"
                   style="font-variant:normal;font-weight:normal;font-size:15.94022369px;font-family:LMRoman17;-inkscape-font-specification:LMRoman17-Regular;writing-mode:lr-tb;fill:#000000;fill-opacity:1;fill-rule:nonzero;stroke:none"
                   id="text48"><tspan
                     x="0"
                     y="0"
                     id="tspan50">5</tspan></text>
</g><g
                 id="g62"><path
                   d="m 233.87031,54.103137 0,-5"
                   style="fill:#999999;fill-opacity:1;fill-rule:nonzero;stroke:#999999;stroke-width:1;stroke-linecap:butt;stroke-linejoin:round;stroke-miterlimit:10;stroke-dasharray:none;stroke-opacity:1"
                   id="path64"
                   inkscape:connector-curvature="0" /><text
                   transform="matrix(1,0,0,-1,226.55976,31.212489)"
                   style="font-variant:normal;font-weight:normal;font-size:15.94022369px;font-family:LMRoman17;-inkscape-font-specification:LMRoman17-Regular;writing-mode:lr-tb;fill:#000000;fill-opacity:1;fill-rule:nonzero;stroke:none"
                   id="text66"><tspan
                     x="0 7.3006225"
                     y="0"
                     sodipodi:role="line"
                     id="tspan68">10</tspan></text>
</g><g
                 id="g80"><path
                   d="m 313.5846,54.103137 0,-5"
                   style="fill:#999999;fill-opacity:1;fill-rule:nonzero;stroke:#999999;stroke-width:1;stroke-linecap:butt;stroke-linejoin:round;stroke-miterlimit:10;stroke-dasharray:none;stroke-opacity:1"
                   id="path82"
                   inkscape:connector-curvature="0" /><text
                   transform="matrix(1,0,0,-1,306.27404,31.212489)"
                   style="font-variant:normal;font-weight:normal;font-size:15.94022369px;font-family:LMRoman17;-inkscape-font-specification:LMRoman17-Regular;writing-mode:lr-tb;fill:#000000;fill-opacity:1;fill-rule:nonzero;stroke:none"
                   id="text84"><tspan
                     x="0 7.3006225"
                     y="0"
                     sodipodi:role="line"
                     id="tspan86">15</tspan></text>
</g><g
                 id="g98"><path
                   d="m 393.29888,54.103137 0,-5"
                   style="fill:#999999;fill-opacity:1;fill-rule:nonzero;stroke:#999999;stroke-width:1;stroke-linecap:butt;stroke-linejoin:round;stroke-miterlimit:10;stroke-dasharray:none;stroke-opacity:1"
                   id="path100"
                   inkscape:connector-curvature="0" /><text
                   transform="matrix(1,0,0,-1,385.98833,31.212489)"
                   style="font-variant:normal;font-weight:normal;font-size:15.94022369px;font-family:LMRoman17;-inkscape-font-specification:LMRoman17-Regular;writing-mode:lr-tb;fill:#000000;fill-opacity:1;fill-rule:nonzero;stroke:none"
                   id="text102"><tspan
                     x="0 7.3006225"
                     y="0"
                     sodipodi:role="line"
                     id="tspan104">20</tspan></text>
</g><g
                 id="g116"><path
                   d="m 473.01317,54.103137 0,-5"
                   style="fill:#999999;fill-opacity:1;fill-rule:nonzero;stroke:#999999;stroke-width:1;stroke-linecap:butt;stroke-linejoin:round;stroke-miterlimit:10;stroke-dasharray:none;stroke-opacity:1"
                   id="path118"
                   inkscape:connector-curvature="0" /><text
                   transform="matrix(1,0,0,-1,465.70261,31.212489)"
                   style="font-variant:normal;font-weight:normal;font-size:15.94022369px;font-family:LMRoman17;-inkscape-font-specification:LMRoman17-Regular;writing-mode:lr-tb;fill:#000000;fill-opacity:1;fill-rule:nonzero;stroke:none"
                   id="text120"><tspan
                     x="0 7.3006225"
                     y="0"
                     sodipodi:role="line"
                     id="tspan122">25</tspan></text>
</g><g
                 id="g134"><path
                   d="m 552.72745,54.103137 0,-5"
                   style="fill:#999999;fill-opacity:1;fill-rule:nonzero;stroke:#999999;stroke-width:1;stroke-linecap:butt;stroke-linejoin:round;stroke-miterlimit:10;stroke-dasharray:none;stroke-opacity:1"
                   id="path136"
                   inkscape:connector-curvature="0" /><text
                   transform="matrix(1,0,0,-1,545.4169,31.212489)"
                   style="font-variant:normal;font-weight:normal;font-size:15.94022369px;font-family:LMRoman17;-inkscape-font-specification:LMRoman17-Regular;writing-mode:lr-tb;fill:#000000;fill-opacity:1;fill-rule:nonzero;stroke:none"
                   id="text138"><tspan
                     x="0 7.3006225"
                     y="0"
                     sodipodi:role="line"
                     id="tspan140">30</tspan></text>
</g><path
                 d="m 632.44174,54.103137 0,-5"
                 style="fill:#999999;fill-opacity:1;fill-rule:nonzero;stroke:#999999;stroke-width:1;stroke-linecap:butt;stroke-linejoin:round;stroke-miterlimit:10;stroke-dasharray:none;stroke-opacity:1"
                 id="path154"
                 inkscape:connector-curvature="0" /><text
                 transform="matrix(1,0,0,-1,625.13119,31.212488)"
                 style="font-variant:normal;font-weight:normal;font-size:15.94022369px;font-family:LMRoman17;-inkscape-font-specification:LMRoman17-Regular;writing-mode:lr-tb;fill:#000000;fill-opacity:1;fill-rule:nonzero;stroke:none"
                 id="text156"><tspan
                   x="0 7.3006225"
                   y="0"
                   sodipodi:role="line"
                   id="tspan158">35</tspan></text>
<g
                 id="g164"><g
                   id="g166"
                   clip-path="url(#clipPath168)"><path
                     d="m 74.441739,54.103137 558.000001,0"
                     style="fill:none;stroke:#ffffff;stroke-width:1;stroke-linecap:round;stroke-linejoin:round;stroke-miterlimit:10;stroke-dasharray:none;stroke-opacity:1"
                     id="path172"
                     inkscape:connector-curvature="0" /></g></g><g
                 id="g174"><path
                   d="m 74.441739,54.103137 -5,0"
                   style="fill:#999999;fill-opacity:1;fill-rule:nonzero;stroke:#999999;stroke-width:1;stroke-linecap:butt;stroke-linejoin:round;stroke-miterlimit:10;stroke-dasharray:none;stroke-opacity:1"
                   id="path176"
                   inkscape:connector-curvature="0" /><text
                   transform="matrix(1,0,0,-1,28.112086,50.208015)"
                   style="font-style:italic;font-variant:normal;font-weight:normal;font-size:15.94022369px;font-family:LMMathSymbols10;-inkscape-font-specification:LMMathSymbols10-Regular;writing-mode:lr-tb;fill:#000000;fill-opacity:1;fill-rule:nonzero;stroke:none"
                   id="text178"><tspan
                     x="0"
                     y="0"
                     id="tspan180">−</tspan></text>
<text
                   transform="matrix(1,0,0,-1,40.510082,50.208015)"
                   style="font-variant:normal;font-weight:normal;font-size:15.94022369px;font-family:LMRoman17;-inkscape-font-specification:LMRoman17-Regular;writing-mode:lr-tb;fill:#000000;fill-opacity:1;fill-rule:nonzero;stroke:none"
                   id="text182"><tspan
                     x="0 7.3006225 14.601245"
                     y="0"
                     sodipodi:role="line"
                     id="tspan184">100</tspan></text>
</g><g
                 id="g196"><path
                   d="m 74.441739,108.10314 -5,0"
                   style="fill:#999999;fill-opacity:1;fill-rule:nonzero;stroke:#999999;stroke-width:1;stroke-linecap:butt;stroke-linejoin:round;stroke-miterlimit:10;stroke-dasharray:none;stroke-opacity:1"
                   id="path198"
                   inkscape:connector-curvature="0" /><text
                   transform="matrix(1,0,0,-1,35.422638,104.20801)"
                   style="font-style:italic;font-variant:normal;font-weight:normal;font-size:15.94022369px;font-family:LMMathSymbols10;-inkscape-font-specification:LMMathSymbols10-Regular;writing-mode:lr-tb;fill:#000000;fill-opacity:1;fill-rule:nonzero;stroke:none"
                   id="text200"><tspan
                     x="0"
                     y="0"
                     id="tspan202">−</tspan></text>
<text
                   transform="matrix(1,0,0,-1,47.820634,104.20801)"
                   style="font-variant:normal;font-weight:normal;font-size:15.94022369px;font-family:LMRoman17;-inkscape-font-specification:LMRoman17-Regular;writing-mode:lr-tb;fill:#000000;fill-opacity:1;fill-rule:nonzero;stroke:none"
                   id="text204"><tspan
                     x="0 7.3006225"
                     y="0"
                     sodipodi:role="line"
                     id="tspan206">80</tspan></text>
</g><g
                 id="g218"><path
                   d="m 74.441739,162.10314 -5,0"
                   style="fill:#999999;fill-opacity:1;fill-rule:nonzero;stroke:#999999;stroke-width:1;stroke-linecap:butt;stroke-linejoin:round;stroke-miterlimit:10;stroke-dasharray:none;stroke-opacity:1"
                   id="path220"
                   inkscape:connector-curvature="0" /><text
                   transform="matrix(1,0,0,-1,35.422638,158.20801)"
                   style="font-style:italic;font-variant:normal;font-weight:normal;font-size:15.94022369px;font-family:LMMathSymbols10;-inkscape-font-specification:LMMathSymbols10-Regular;writing-mode:lr-tb;fill:#000000;fill-opacity:1;fill-rule:nonzero;stroke:none"
                   id="text222"><tspan
                     x="0"
                     y="0"
                     id="tspan224">−</tspan></text>
<text
                   transform="matrix(1,0,0,-1,47.820634,158.20801)"
                   style="font-variant:normal;font-weight:normal;font-size:15.94022369px;font-family:LMRoman17;-inkscape-font-specification:LMRoman17-Regular;writing-mode:lr-tb;fill:#000000;fill-opacity:1;fill-rule:nonzero;stroke:none"
                   id="text226"><tspan
                     x="0 7.3006225"
                     y="0"
                     sodipodi:role="line"
                     id="tspan228">60</tspan></text>
</g><g
                 id="g240"><path
                   d="m 74.441739,216.10314 -5,0"
                   style="fill:#999999;fill-opacity:1;fill-rule:nonzero;stroke:#999999;stroke-width:1;stroke-linecap:butt;stroke-linejoin:round;stroke-miterlimit:10;stroke-dasharray:none;stroke-opacity:1"
                   id="path242"
                   inkscape:connector-curvature="0" /><text
                   transform="matrix(1,0,0,-1,35.422638,212.20801)"
                   style="font-style:italic;font-variant:normal;font-weight:normal;font-size:15.94022369px;font-family:LMMathSymbols10;-inkscape-font-specification:LMMathSymbols10-Regular;writing-mode:lr-tb;fill:#000000;fill-opacity:1;fill-rule:nonzero;stroke:none"
                   id="text244"><tspan
                     x="0"
                     y="0"
                     id="tspan246">−</tspan></text>
<text
                   transform="matrix(1,0,0,-1,47.820634,212.20801)"
                   style="font-variant:normal;font-weight:normal;font-size:15.94022369px;font-family:LMRoman17;-inkscape-font-specification:LMRoman17-Regular;writing-mode:lr-tb;fill:#000000;fill-opacity:1;fill-rule:nonzero;stroke:none"
                   id="text248"><tspan
                     x="0 7.3006225"
                     y="0"
                     sodipodi:role="line"
                     id="tspan250">40</tspan></text>
</g><g
                 id="g262"><path
                   d="m 74.441739,270.10314 -5,0"
                   style="fill:#999999;fill-opacity:1;fill-rule:nonzero;stroke:#999999;stroke-width:1;stroke-linecap:butt;stroke-linejoin:round;stroke-miterlimit:10;stroke-dasharray:none;stroke-opacity:1"
                   id="path264"
                   inkscape:connector-curvature="0" /><text
                   transform="matrix(1,0,0,-1,35.422638,266.20801)"
                   style="font-style:italic;font-variant:normal;font-weight:normal;font-size:15.94022369px;font-family:LMMathSymbols10;-inkscape-font-specification:LMMathSymbols10-Regular;writing-mode:lr-tb;fill:#000000;fill-opacity:1;fill-rule:nonzero;stroke:none"
                   id="text266"><tspan
                     x="0"
                     y="0"
                     id="tspan268">−</tspan></text>
<text
                   transform="matrix(1,0,0,-1,47.820634,266.20801)"
                   style="font-variant:normal;font-weight:normal;font-size:15.94022369px;font-family:LMRoman17;-inkscape-font-specification:LMRoman17-Regular;writing-mode:lr-tb;fill:#000000;fill-opacity:1;fill-rule:nonzero;stroke:none"
                   id="text270"><tspan
                     x="0 7.3006225"
                     y="0"
                     sodipodi:role="line"
                     id="tspan272">20</tspan></text>
</g><g
                 id="g284"><path
                   d="m 74.441739,324.10314 -5,0"
                   style="fill:#999999;fill-opacity:1;fill-rule:nonzero;stroke:#999999;stroke-width:1;stroke-linecap:butt;stroke-linejoin:round;stroke-miterlimit:10;stroke-dasharray:none;stroke-opacity:1"
                   id="path286"
                   inkscape:connector-curvature="0" /><text
                   transform="matrix(1,0,0,-1,55.131186,320.20801)"
                   style="font-variant:normal;font-weight:normal;font-size:15.94022369px;font-family:LMRoman17;-inkscape-font-specification:LMRoman17-Regular;writing-mode:lr-tb;fill:#000000;fill-opacity:1;fill-rule:nonzero;stroke:none"
                   id="text288"><tspan
                     x="0"
                     y="0"
                     id="tspan290">0</tspan></text>
</g><g
                 id="g302"><path
                   d="m 74.441739,378.10314 -5,0"
                   style="fill:#999999;fill-opacity:1;fill-rule:nonzero;stroke:#999999;stroke-width:1;stroke-linecap:butt;stroke-linejoin:round;stroke-miterlimit:10;stroke-dasharray:none;stroke-opacity:1"
                   id="path304"
                   inkscape:connector-curvature="0" /><text
                   transform="matrix(1,0,0,-1,47.820634,374.20801)"
                   style="font-variant:normal;font-weight:normal;font-size:15.94022369px;font-family:LMRoman17;-inkscape-font-specification:LMRoman17-Regular;writing-mode:lr-tb;fill:#000000;fill-opacity:1;fill-rule:nonzero;stroke:none"
                   id="text306"><tspan
                     x="0 7.3006225"
                     y="0"
                     sodipodi:role="line"
                     id="tspan308">20</tspan></text>
</g><g
                 id="g320"><path
                   d="m 74.441739,432.10314 -5,0"
                   style="fill:#999999;fill-opacity:1;fill-rule:nonzero;stroke:#999999;stroke-width:1;stroke-linecap:butt;stroke-linejoin:round;stroke-miterlimit:10;stroke-dasharray:none;stroke-opacity:1"
                   id="path322"
                   inkscape:connector-curvature="0" /><text
                   transform="matrix(1,0,0,-1,47.820634,428.20801)"
                   style="font-variant:normal;font-weight:normal;font-size:15.94022369px;font-family:LMRoman17;-inkscape-font-specification:LMRoman17-Regular;writing-mode:lr-tb;fill:#000000;fill-opacity:1;fill-rule:nonzero;stroke:none"
                   id="text324"><tspan
                     x="0 7.3006225"
                     y="0"
                     sodipodi:role="line"
                     id="tspan326">40</tspan></text>
</g><g
                 id="g350"><g
                   id="g352"
                   clip-path="url(#clipPath354)"><path
                     d="m 74.441739,154.87541 0,-6.86396 0.398571,0.008 0.398572,0.007 0.398571,0.007 0.398571,0.006 0.398572,0.006 0.398571,0.005 0.398572,0.006 0.398571,0.007 0.398572,0.006 0.398571,0.005 0.398571,0.005 0.398572,0.006 0.398571,0.004 0.398572,0.005 0.398571,0.005 0.398572,0.004 0.398571,0.004 0.398571,0.004 0.398572,0.003 0.398571,0.004 0.398572,0.004 0.398571,0.004 0.398572,0.004 0.398571,0.003 0.398571,0.003 0.398572,0.003 0.398571,0.003 0.398572,0.003 0.398571,0.003 0.398572,0.003 0.398571,0.002 0.398571,0.003 0.398572,0.002 0.398571,0.003 0.398572,0.002 0.398571,0.002 0.398572,0.002 0.398571,0.002 0.398571,0.002 0.398572,9.9e-4 0.398571,0.002 0.398572,0.001 0.398571,0.002 0.398572,0.002 0.398571,0.001 0.398571,9.8e-4 0.398572,0.001 0.398571,1.7e-4 0.398572,9.4e-4 0.398571,-1.9e-4 0.398572,9e-4 0.398571,9.5e-4 0.398571,1.5e-4 0.398572,4.7e-4 0.398571,4e-5 0.398572,-6.6e-4 0.398571,-3.7e-4 0.398572,0 0.398571,-3.3e-4 0.398571,-2.9e-4 0.398572,-6.1e-4 0.398571,-9.1e-4 0.398572,-0.001 0.398571,-3.1e-4 0.39857,-2e-4 0.39857,-0.001 0.39857,-8.9e-4 0.39858,-7.2e-4 0.39857,-2.9e-4 0.39857,-0.002 0.39857,-5.9e-4 0.39857,-0.002 0.39857,-10e-4 0.39857,-0.002 0.39858,-0.002 0.39857,-0.002 0.39857,-0.001 0.39857,-0.002 0.39857,-0.001 0.39857,-0.001 0.39857,-10e-4 0.39858,-0.002 0.39857,-0.002 0.39857,-0.002 0.39857,-0.001 0.39857,-0.003 0.39857,-0.003 0.39857,-0.002 0.39858,-0.003 0.39857,-0.006 0.39857,-0.006 0.39857,-0.007 0.39857,-0.006 0.39857,-0.005 0.39857,-0.006 0.39858,-0.006 0.39857,-0.006 0.39857,-0.006 0.39857,-0.005 0.39857,-0.005 0.39857,-0.005 0.39857,-0.005 0.39858,-0.005 0.39857,-0.005 0.39857,-0.004 0.39857,-0.003 0.39857,-0.005 0.39857,-0.004 0.39857,-0.005 0.39858,-0.005 0.39857,-0.004 0.39857,-0.003 0.39857,-0.004 0.39857,-0.004 0.39857,-0.004 0.39857,-0.003 0.39858,-0.004 0.39857,-0.003 0.39857,-0.003 0.39857,-0.003 0.39857,-0.003 0.39857,-0.003 0.39857,-0.003 0.39858,-0.003 0.39857,-0.002 0.39857,-0.003 0.39857,-0.002 0.39857,-0.002 0.39857,-0.002 0.39857,-0.002 0.39858,-0.003 0.39857,-0.002 0.39857,-0.002 0.39857,-0.002 0.39857,-0.002 0.39857,-0.001 0.39857,-0.002 0.39858,-10e-4 0.39857,-0.001 0.39857,-0.001 0.39857,-9.1e-4 0.39857,-0.001 0.39857,-0.001 0.39857,-7e-4 0.39858,-6.4e-4 0.39857,-4.2e-4 0.39857,-3.9e-4 0.39857,-5.6e-4 0.39857,-6.1e-4 0.39857,-3.2e-4 0.39857,-2.1e-4 0.39858,2e-5 0.39857,5e-5 0.39857,3e-4 0.39857,2.6e-4 0.39857,1.7e-4 0.39857,2.4e-4 0.39857,5.3e-4 0.39858,7.1e-4 0.39857,6.8e-4 0.39857,9.7e-4 0.39857,7e-4 0.39857,9.6e-4 0.39857,9.2e-4 0.39857,0.001 0.39858,10e-4 0.39857,0.001 0.39857,9.7e-4 0.39857,7.4e-4 0.39857,0.001 0.39857,0.001 0.39857,0.001 0.39858,10e-4 0.39857,0.001 0.39857,0.001 0.39857,0.002 0.39857,0.001 0.39857,0.002 0.39857,0.002 0.39858,0.001 0.39857,0.002 0.39857,0.002 0.39857,0.002 0.39857,0.002 0.39857,0.002 0.39857,0.002 0.39858,0.002 0.39857,0.002 0.39857,0.003 0.39857,0.002 0.39857,0.002 0.39857,0.003 0.39857,0.002 0.39858,0.002 0.39857,0.002 0.39857,0.003 0.39857,0.002 0.39857,0.003 0.39857,0.002 0.39857,0.11499 0.39858,0.66721 0.39857,0.65719 0.39857,0.64824 0.39857,0.63874 0.39857,0.63002 0.39857,0.62197 0.39857,0.61532 0.39858,0.60808 0.39857,0.60239 0.39857,0.59556 0.39857,0.59035 0.39857,0.58517 0.39857,0.579 0.39857,0.57493 0.39858,0.56991 0.39857,0.56985 0.39857,0.56644 0.39857,0.56234 0.39857,0.56156 0.39857,0.558 0.39857,0.55787 0.39858,0.55687 0.39857,0.5566 0.39857,0.55817 0.39857,0.55901 0.39857,0.5623 0.39857,0.56382 0.39857,0.56478 0.39858,0.56995 0.39857,0.57414 0.39857,0.57682 0.39857,0.58404 0.39857,0.59009 0.39857,0.59651 0.39857,0.60579 0.39858,0.61563 0.39857,0.62466 0.39857,0.63392 0.39857,0.64374 0.39857,0.65853 0.39857,0.67791 0.39857,0.68709 0.39858,0.71228 0.39857,0.73133 0.39857,0.74691 0.39857,0.77169 0.39857,0.7956 0.39857,0.82982 0.39857,0.85632 0.39858,0.89461 0.39857,0.93242 0.39857,0.97561 0.39857,1.02922 0.39857,1.07937 0.39857,1.14332 0.39857,1.21041 0.39858,1.2849 0.39857,1.3719 0.39857,1.46695 0.39857,1.57318 0.39857,1.70522 0.39857,1.85172 0.39857,2.00781 0.39858,2.19672 0.39857,2.41887 0.39857,2.67323 0.39857,2.97135 0.39857,3.31572 0.39857,3.71643 0.39857,4.20749 0.39858,4.79178 0.39857,5.51912 0.39857,6.37881 0.39857,7.43326 0.39857,8.73326 0.39857,10.36342 0.39857,12.35494 0.39858,14.4528 0.39857,16.55969 0.39857,18.5284 0.39857,19.48714 0.39857,19.95817 0.39857,18.53652 0.39857,15.91151 0.39858,12.18113 0.39857,7.97188 0.39857,3.06629 0.39857,0.0795 0.39857,-1.50583 0.39857,-2.19684 0.39857,-2.38945 0.39858,-2.50531 0.39857,-2.5938 0.39857,-2.68581 0.39857,-2.78168 0.39857,-2.85351 0.39857,-2.92473 0.39857,-2.98907 0.39858,-3.04988 0.39857,-3.10409 0.39857,-3.14422 0.39857,-3.17882 0.39857,-3.22199 0.39857,-3.24341 0.39857,-3.26036 0.39858,-3.28837 0.39857,-3.28667 0.39857,-3.29237 0.39857,-3.30554 0.39857,-3.31509 0.39857,-3.30803 0.39857,-3.31004 0.39858,-3.30242 0.39857,-3.29985 0.39857,-3.28949 0.39857,-3.27474 0.39857,-3.26308 0.39857,-3.24824 0.39857,-3.22665 0.39858,-3.21674 0.39857,-3.19551 0.39857,-3.17459 0.39857,-3.1616 0.39857,-3.13857 0.39857,-3.12422 0.39857,-3.10714 0.39858,-3.08259 0.39857,-3.05961 0.39857,-3.04333 0.39857,-3.01709 0.39857,-3.00649 0.39857,-2.98435 0.39857,-2.96014 0.39858,-2.95135 0.39857,-2.93313 0.39857,-2.92785 0.39857,-2.90564 0.39857,-2.89208 0.39857,-2.88551 0.39857,-2.87705 0.39858,-2.87397 0.39857,-2.86716 0.39857,-2.85761 0.39857,-2.8625 0.39857,-2.86215 0.39857,-2.86921 0.39857,-2.88126 0.39858,-2.89446 0.39857,-2.91037 0.39857,-2.93463 0.39857,-2.96201 0.39857,-2.99635 0.39857,-3.03491 0.39857,-3.08301 0.39858,-3.14102 0.39857,-3.20297 0.39857,-3.27579 0.39857,-3.35588 0.39857,-3.4427 0.39857,-3.54069 0.39857,-3.6436 0.39858,-3.75301 0.39857,-3.86303 0.39857,-3.97577 0.39857,-4.08207 0.39857,-4.18375 0.39857,-4.26725 0.39857,-4.32515 0.39858,-4.35493 0.39857,-4.3484 0.39857,-4.29007 0.39857,-4.18137 0.39857,-4.01142 0.39857,-3.80399 0.39857,-3.553 0.39858,-3.25283 0.39857,-2.9347 0.39857,-2.60446 0.39857,-2.27758 0.39857,-1.95837 0.39857,-1.664 0.39857,-1.39292 0.39858,-1.15166 0.39857,-0.94415 0.39857,-0.76368 0.39857,-0.61498 0.39857,-0.48833 0.39857,-0.38479 0.39857,-0.29931 0.39858,-0.22855 0.39857,-0.17156 0.39857,-0.12669 0.39857,-0.0894 0.39857,-0.0604 0.39857,-0.0359 0.39857,-0.0163 0.39858,-0.002 0.39857,0.0119 0.39857,0.0212 0.39857,0.0295 0.39857,0.036 0.39857,0.0415 0.39857,0.0465 0.39858,0.049 0.39857,0.0526 0.39857,0.055 0.39857,0.0574 0.39857,0.0597 0.39857,0.0606 0.39857,0.0625 0.39858,0.0636 0.39857,0.0651 0.39857,0.0663 0.39857,0.0675 0.39857,0.0682 0.39857,0.0683 0.39857,0.0692 0.39858,0.0707 0.39857,0.0719 0.39857,0.0724 0.39857,0.0729 0.39857,0.0739 0.39857,0.0743 0.39857,0.0751 0.39858,0.0753 0.39857,0.0761 0.39857,0.0775 0.39857,0.0779 0.39857,0.078 0.39857,0.0786 0.39857,0.0795 0.39858,0.0809 0.39857,0.0805 0.39857,0.0812 0.39857,0.0822 0.39857,0.0831 0.39857,0.0834 0.39857,0.0842 0.39858,0.0852 0.39857,0.0852 0.39857,0.086 0.39857,0.087 0.39857,0.0872 0.39857,0.088 0.39857,0.0885 0.39858,0.0891 0.39857,0.0895 0.39857,0.0903 0.39857,0.0907 0.39857,0.0914 0.39857,0.0928 0.39857,0.0931 0.39858,0.0935 0.39857,0.0945 0.39857,0.0951 0.39857,0.0957 0.39857,0.0963 0.39857,0.0965 0.39857,0.0971 0.39858,0.0977 0.39857,0.099 0.39857,0.0993 0.39857,0.10043 0.39857,0.10092 0.39857,0.10147 0.39857,0.10177 0.39858,0.10239 0.39857,0.10331 0.39857,0.1038 0.39857,0.10441 0.39857,0.1045 0.39857,0.10514 0.39857,0.10615 0.39858,0.10631 0.39857,0.10752 0.39857,0.10782 0.39857,0.10857 0.39857,0.10927 0.39857,0.1099 0.39857,0.11016 0.39858,0.11063 0.39857,0.11086 0.39857,0.11232 0.39857,0.11253 0.39857,0.1128 0.39857,0.11367 0.39857,0.11392 0.39858,0.11501 0.39857,0.11596 0.39857,0.11592 0.39857,0.11673 0.39857,0.11644 0.39857,0.11721 0.39857,0.11819 0.39858,0.11836 0.39857,0.11967 0.39857,0.11984 0.39857,0.12026 0.39857,0.12112 0.39857,0.12124 0.39857,0.12195 0.39858,0.12234 0.39857,0.12249 0.39857,0.12336 0.39857,0.12281 0.39857,0.12428 0.39857,0.12451 0.39857,0.12498 0.39858,0.12547 0.39857,0.12616 0.39857,0.12674 0.39857,0.12681 0.39857,0.12702 0.39857,0.12779 0.39857,0.12791 0.39858,0.12895 0.39857,0.1288 0.39857,0.12938 0.39857,0.12966 0.39857,0.1301 0.39857,0.1305 0.39857,0.13137 0.39858,0.13149 0.39857,0.1318 0.39857,0.13234 0.39857,0.13252 0.39857,0.133 0.39857,0.13265 0.39857,0.13358 0.39858,0.13406 0.39857,0.13421 0.39857,0.1348 0.39857,0.13511 0.39857,0.13553 0.39857,0.13587 0.39857,0.1361 0.39858,0.13648 0.39857,0.1368 0.39857,0.13728 0.39857,0.137 0.39857,0.13741 0.39857,0.13751 0.39857,0.13797 0.39858,0.13808 0.39857,0.13859 0.39857,0.13864 0.39857,0.13888 0.39857,0.1391 0.39857,0.13937 0.39857,0.13916 0.39858,0.13941 0.39857,0.14014 0.39857,0.14042 0.39857,0.14083 0.39857,0.14049 0.39857,0.14109 0.39857,0.14119 0.39858,0.14114 0.39857,0.14113 0.39857,0.14139 0.39857,0.14143 0.39857,0.14173 0.39857,0.14158 0.39857,0.14165 0.39858,0.14181 0.39857,0.14238 0.39857,0.14208 0.39857,0.14237 0.39857,0.1422 0.39857,0.14317 0.39857,0.142 0.39858,0.14246 0.39857,0.1423 0.39857,0.14295 0.39857,0.14247 0.39857,0.14305 0.39857,0.1432 0.39857,0.14313 0.39858,0.14303 0.39857,0.14312 0.39857,0.1433 0.39857,0.14337 0.39857,0.14335 0.39857,0.14305 0.39857,0.14304 0.39858,0.14304 0.39857,0.14284 0.39857,0.14282 0.39857,0.14328 0.39857,0.14342 0.39857,0.14238 0.39857,0.14287 0.39858,0.14294 0.39857,0.14285 0.39857,0.1424 0.39857,0.14233 0.39857,0.14269 0.39857,0.14231 0.39857,0.14239 0.39858,0.14234 0.39857,0.14162 0.39857,0.14222 0.39857,0.1421 0.39857,0.14198 0.39857,0.14172 0.39857,0.14149 0.39858,0.14134 0.39857,0.14162 0.39857,0.14091 0.39857,0.14117 0.39857,0.14053 0.39857,0.14122 0.39857,0.14049 0.39858,0.13997 0.39857,0.14048 0.39857,0.14056 0.39857,0.14024 0.39857,0.13993 0.39857,0.1395 0.39857,0.13969 0.39858,0.13932 0.39857,0.13871 0.39857,0.13906 0.39857,0.13852 0.39857,0.13893 0.39857,0.13885 0.39857,0.13803 0.39858,0.13778 0.39857,0.13778 0.39857,0.13756 0.39857,0.13751 0.39857,0.13699 0.39857,0.1364 0.39857,0.13636 0.39858,0.13629 0.39857,0.13629 0.39857,0.13583 0.39857,0.13527 0.39857,0.13497 0.39857,0.13372 0.39857,0.13353 0.39858,0.13297 0.39857,0.13306 0.39857,0.13302 0.39857,0.13255 0.39857,0.13232 0.39857,0.13212 0.39857,0.13134 0.39858,0.13138 0.39857,0.13135 0.39857,0.13166 0.39857,0.13153 0.39857,0.13079 0.39857,0.13091 0.39857,0.1311 0.39858,0.13024 0.39857,0.12914 0.39857,0.13023 0.39857,0.12943 0.39857,0.12855 0.39857,0.12874 0.39857,0.12904 0.39858,0.12841 0.39857,0.12828 0.39857,0.12738 0.39857,0.12773 0.39857,0.12639 0.39857,0.12755 0.39857,0.1269 0.39858,0.12762 0.39857,0.12629 0.39857,0.12657 0.39857,0.12558 0.39857,0.12539 0.39857,0.12651 0.39857,0.12543 0.39858,0.12595 0.39857,0.12501 0.39857,0.12511 0.39857,0.12464 0.39857,0.12412 0.39857,0.12394 0.39857,0.12326 0.39858,0.12341 0.39857,0.12279 0.39857,0.1223 0.39857,0.12314 0.39857,0.12314 0.39857,0.12285 0.39857,0.12104 0.39858,0.12239 0.39857,0.12205 0.39857,0.1221 0.39857,0.12015 0.39857,0.11999 0.39857,0.12053 0.39857,0.12046 0.39858,0.12107 0.39857,0.12001 0.39857,0.11996 0.39857,0.11994 0.39857,0.1188 0.39857,0.11851 0.39857,0.11976 0.39858,0.11852 0.39857,0.11954 0.39857,0.11835 0.39857,0.11782 0.39857,0.11819 0.39857,0.11713 0.39857,0.11853 0.39858,0.11766 0.39857,0.11716 0.39857,0.11618 0.39857,0.11774 0.39857,0.11712 0.39857,0.11681 0.39857,0.11693 0.39858,0.11715 0.39857,0.11685 0.39857,0.1163 0.39857,0.11556 0.39857,0.11665 0.39857,0.11543 0.39857,0.11598 0.39858,0.11533 0.39857,0.11363 0.39857,0.11534 0.39857,0.11422 0.39857,0.11304 0.39857,0.11346 0.39857,0.11425 0.39858,0.11387 0.39857,0.11511 0.39857,0.11412 0.39857,0.11349 0.39857,0.11429 0.39857,0.11308 0.39857,0.11384 0.39858,0.11024 0.39857,0.11417 0.39857,0.11182 0.39857,0.1141 0.39857,0.10992 0.39857,0.11202 0.39857,0.11032 0.39858,0.11192 0.39857,0.11066 0.39857,0.11092 0.39857,0.1113 0.39857,0.1106 0.39857,0.10997 0.39857,0.10904 0.39858,0.10836 0.39857,0.11047 0.39857,0.1099 0.39857,0.10931 0.39857,0.11018 0.39857,0.10775 0.39857,0.10742 0.39858,0.10775 0.39857,0.10902 0.39857,0.10594 0.39857,0.10734 0.39857,0.10675 0.39857,0.1094 0.39857,0.10564 0.39858,0.10676 0.39857,0.10664 0.39857,0.10551 0.39857,0.1074 0.39857,0.10809 0.39857,0.10772 0.39857,0.10514 0.39858,0.10678 0.39857,0.10569 0.39857,0.10571 0.39857,0.10617 0.39857,0.10554 0.39857,0.10528 0.39857,0.10601 0.39858,0.10474 0.39857,0.10128 0.39857,0.10677 0.39857,0.10426 0.39857,0.10306 0.39857,0.10397 0.39857,0.1042 0.39858,0.10543 0.39857,0.10539 0.39857,0.10387 0.39857,0.10557 0.39857,0.10277 0.39857,0.10618 0.39857,0.10248 0.39858,0.10375 0.39857,0.10397 0.39857,0.10446 0.39857,0.10584 0.39857,0.10279 0.39857,0.10556 0.39857,0.10575 0.39858,0.10443 0.39857,0.10427 0.39857,0.10305 0.39857,0.10462 0.39857,0.10046 0.39857,0.10506 0.39857,0.10586 0.39858,0.10414 0.39857,0.10409 0.39857,0.10363 0.39857,0.10332 0.39857,0.10106 0.39857,0.0994 0.39857,0.10219 0.39858,0.0976 0.39857,0.0981 0.39857,0.0895 0.39857,0.0896 0.39857,0.0927 0.39857,0.0818 0.39857,0.0794 0.39858,0.0746 0.39857,0.0715 0.39857,0.0659 0.39857,0.0517 0.39857,0.0299 0.39857,0.0203 0.39857,-0.008 0.39858,-0.0395 0.39857,-0.0826 0.39857,-0.15326 0.39857,-0.21618 0.39857,-0.28798 0.39857,-0.44217 0.39857,-0.5635 0.39858,-0.69947 0.39857,-0.83879 0.39857,-0.91366 0.39857,-0.82424 0.39857,-0.58992 0.39857,-0.35002 0.39857,-0.12937 0.39858,0.10986 0.39857,0.27487 0.39857,0.40356 0.39857,0.35678 0.39857,-0.0192 0.39857,-0.4527 0.39857,-1.09227 0.39858,-1.66624 0.39857,-1.93789 0.39857,-2.09231 0.39857,-2.15074 0.39857,-2.03644 0.39857,-2.00103 0.39857,-1.68553 0.39858,-1.52398 0.39857,-1.29315 0.39857,-1.1435 0.39857,-1.13059 0.39857,-1.10603 0.39857,-1.15414 0.39857,-1.03637 0.39858,-0.73894 0.39857,-0.64741 0.39857,-0.22657 0.39857,0.1422 0.39857,0.39715 0.39857,0.0522 0.39857,0.18462 0.39858,0.20851 0.39857,0.2412 0.39857,0.12097 0.39857,-0.22378 0.39857,-0.28235 0.39857,-0.46646 0.39857,-0.22753 0.39858,-0.13859 0.39857,-0.0971 0.39857,-0.15749 0.39857,0.19527 0.39857,0.11072 0.39857,0.53246 0.39857,1.49612 0.39858,1.33366 0.39857,1.97855 0.39857,1.93833 0.39857,2.50819 0.39857,2.07366 0.39857,0.9275 0.39857,-0.76689 0.39858,0.88368 0.39857,1.96341 0.39857,2.75778 0.39857,3.51392 0.39857,3.61101 0.39857,4.02519 0.39857,4.0598 0.39858,5.36257 0.39857,4.81072 0.39857,6.11837 0.39857,7.08414 0.39857,5.04387 0.39857,2.48332 0.39857,-0.99964 0.39858,-1.63652 0.39857,-1.2137 0.39857,-0.12663 0.39857,0.55915 0.39857,0.85978 0.39857,1.55346 0.39857,2.20267 0.39858,2.02975 0.39857,1.53251 0.39857,-0.0183 0.39857,-2.84804 0.39857,-2.82343 0.39857,-2.79323 0.39857,-2.77094 0.39858,-2.68382 0.39857,-2.85297 0.39857,-2.81668 0.39857,-2.84015 0.39857,-2.97534 0.39857,-3.60638 0.39857,-4.12958 0.39858,-4.55587 0.39857,-4.56724 0.39857,-4.73061 0.39857,-4.60975 0.39857,-4.39139 0.39857,-4.24634 0.39857,-3.99423 0.39858,-3.77912 0.39857,-3.76499 0.39857,-3.529 0.39857,-3.27076 0.39857,-3.02646 0.39857,-3.06207 0.39857,-3.00599 0.39858,-2.86935 0.39857,-2.91245 0.39857,-2.61653 0.39857,-2.54866 0.39857,-2.20036 0.39857,-2.04443 0.39857,-1.79992 0.39858,-1.57183 0.39857,-1.29479 0.39857,-1.07946 0.39857,-0.811949 0.39857,-0.737633 0.39857,-0.363217 0.39857,-0.310867 0.39858,0.01519 0.39857,0.142803 0.39857,0.222042 0.39857,0.466249 0.39857,0.717617 0.39857,0.725455 0.39857,0.98583 0.39858,1.1004 0.39857,1.1357 0.39857,1.30422 0.39857,1.31725 0.39857,1.29666 0.39857,1.23605 0.39857,1.08446 0.39858,0.89984 0.39857,0.67672 0.39857,0.46517 0.39857,0.32704 0.39857,0.24403 0.39857,0.17796 0.39857,0.0837 0.39858,0.0209 0.39857,0.0104 0.39857,0.043 0.39857,-0.0216 0.39857,-0.0998 0.39857,-0.10854 0.39857,-0.25447 0.39858,-0.96292 0.39857,-1.24454 0.39857,-1.16175 0.39857,-0.96667 0.39857,-1.01224 0.39857,-0.87883 0.39857,-0.75346 0.39858,-0.64906 0.39857,-0.45329 0.39857,-0.16422 0.39857,-0.0795 0.39857,-0.0534 0.39857,-0.002 0.39857,0.11658 0.39858,0.14124 0.39857,0.1501 0.39857,-0.2861 0.39857,-0.28167 0.39857,-0.33577 0.39857,-0.38233 0.39857,-0.34421 0.39858,-0.46088 0.39857,-0.38567 0.39857,-0.31754 0.39857,-0.27832 0.39857,-0.1491 0.39857,-0.0988 0.39857,-0.0812 0.39858,-0.0251 0.39857,0.0275 0.39857,0.0808 0.39857,0.0687 0.39857,0.10158 0.39857,0.17578 0.39857,0.25209 0.39858,0.27309 0.39857,0.27812 0.39857,0.2575 0.39857,0.2737 0.39857,0.36552 0.39857,0.36487 0.39857,0.27655 0.39858,0.29348 0.39857,0.2788 0.39857,0.31323 0.39857,0.32846 0.39857,0.28764 0.39857,0.31415 0.39857,0.37152 0.39858,0.4456 0.39857,0.45261 0.39857,0.55696 0.39857,0.58747 0.39857,0.68126 0.39857,0.6745 0.39857,0.75116 0.39858,0.80011 0.39857,0.80314 0.39857,0.8275 0.39857,0.82842 0.39857,0.82221 0.39857,0.81405 0.39857,0.79143 0.39858,0.7353 0.39857,0.67893 0.39857,0.60533 0.39857,0.50949 0.39857,0.42877 0.39857,0.36287 0.39857,0.30333 0.39858,0.24173 0.39857,0.20457 0.39857,0.15281 0.39857,0.12195 0.39857,0.0935 0.39857,0.0766 0.39857,0.0565 0.39858,0.0476 0.39857,0.0327 0.39857,0.0311 0.39857,0.022 0.39857,0.025 0.39857,0.0243 0.39857,0.0269 0.39858,0.0254 0.39857,0.0259 0.39857,0.0298 0.39857,0.0329 0.39857,0.0289 0.39857,0.0333 0.39857,0.0319 0.39858,0.0368 0.39857,0.0375 0.39857,0.0359 0.39857,0.0361 0.39857,0.037 0.39857,0.0368 0.39857,0.0377 0.39858,0.0394 0.39857,0.0389 0.39857,0.0394 0.39857,0.0412 0.39857,0.0401 0.39857,0.0416 0.39857,0.0417 0.39858,0.0429 0.39857,0.0431 0.39857,0.0436 0.39857,0.0437 0.39857,0.0411 0.39857,0.0436 0.39857,0.0419 0.39858,0.0437 0.39857,0.0459 0.39857,0.0434 0.39857,0.0446 0.39857,0.0442 0.39857,0.048 0.39857,0.0461 0.39858,0.0478 0.39857,0.0458 0.39857,0.0463 0.39857,0.0472 0.39857,0.0483 0.39857,0.0479 0.39857,0.0489 0.39858,0.0492 0.39857,0.0478 0.39857,0.0482 0.39857,0.049 0.39857,0.0491 0.39857,0.0484 0.39857,0.0506 0.39858,0.0504 0.39857,0.0501 0.39857,0.0487 0.39857,0.0495 0.39857,0.0508 0.39857,0.0512 0.39857,0.051 0.39858,0.0521 0.39857,0.0532 0.39857,0.053 0.39857,0.0535 0.39857,0.0534 0.39857,0.0542 0.39857,0.0553 0.39858,0.0549 0.39857,0.0537 0.39857,0.0558 0.39857,0.0561 0.39857,0.054 0.39857,0.0537 0.39857,0.0558 0.39858,0.0556 0.39857,0.0544 0.39857,0.057 0.39857,0.0562 0.39857,0.0554 0.39857,0.0584 0.39857,0.0554 0.39858,0.0579 0.39857,0.0566 0.39857,0.0584 0.39857,0.0574 0.39857,0.0574 0.39857,0.061 0.39857,0.0594 0.39858,0.0602 0.39857,0.0596 0.39857,0.0602 0.39857,0.0608 0.39857,0.0603 0.39857,0.0622 0.39857,0.0594 0.39858,0.0593 0.39857,0.061 0.39857,0.0633 0.39857,0.061 0.39857,0.0617 0.39857,0.0622 0.39857,0.0627 0.39858,0.0635 0.39857,0.0638 0.39857,0.0627 0.39857,0.0639 0.39857,0.0643 0.39857,0.064 0.39857,0.0639 0.39858,0.0648 0.39857,0.0655 0.39857,0.0665 0.39857,0.0658 0.39857,0.065 0.39857,0.0677 0.39857,0.0645 0.39858,0.066 0.39857,0.0664 0.39857,0.0674 0.39857,0.0674 0.39857,0.0676 0.39857,0.0674 0.39857,0.0667 0.39858,0.0675 0.39857,0.0671 0.39857,0.0682 0.39857,0.0673 0.39857,0.0694 0.39857,0.0681 0.39857,0.0692 0.39858,0.0687 0.39857,0.0699 0.39857,0.0692 0.39857,0.07 0.39857,0.0694 0.39857,0.0685 0.39857,0.0689 0.39858,0.071 0.39857,0.0704 0.39857,0.0706 0.39857,0.072 0.39857,0.0706 0.39857,0.0694 0.39857,0.0709 0.39858,0.0709 0.39857,0.0707 0.39857,0.072 0.39857,0.0715 0.39857,0.0717 0.39857,0.0723 0.39857,0.0723 0.39858,0.0723 0.39857,0.072 0.39857,0.0727 0.39857,0.0733 0.39857,0.073 0.39857,0.0747 0.39857,0.0729 0.39858,0.0726 0.39857,0.0732 0.39857,0.0754 0.39857,0.0731 0.39857,0.075 0.39857,0.0745 0.39857,0.0739 0.39858,0.0745 0.39857,0.0739 0.39857,0.0747 0.39857,0.0741 0.39857,0.0744 0.39857,0.0747 0.39857,0.0759 0.39858,0.0759 0.39857,0.0753 0.39857,0.0749 0.39857,0.0757 0.39857,0.0757 0.39857,0.0748 0.39857,0.0742 0.39858,0.0747 0.39857,0.073 0.39857,0.0755 0.39857,0.0745 0.39857,0.0755 0.39857,0.075 0.39857,0.0757 0.39858,0.0754 0.39857,0.0753 0.39857,0.0754 0.39857,0.0753 0.39857,0.075 0.39857,0.077 0.39857,0.0756 0.39858,0.0752 0.39857,0.0752 0.39857,0.0754 0.39857,0.0767 0.39857,0.0755 0.39857,0.0749 0.39857,0.076 0.39858,0.0744 0.39857,0.0742 0.39857,0.0741 0.39857,0.0762 0.39857,0.0756 0.39857,0.0753 0.39857,0.0745 0.39858,0.0759 0.39857,0.0748 0.39857,0.0755 0.39857,0.0753 0.39857,0.0749 0.39857,0.0749 0.39857,0.0757 0.39858,0.0762 0.39857,0.0742 0.39857,0.0751 0.39857,0.0743 0.39857,0.0743 0.39857,0.0771 0.39857,0.0733 0.39858,0.0751 0.39857,0.0759 0.39857,0.0767 0.39857,0.0751 0.39857,0.0749 0.39857,0.0756 0.39857,0.074 0.39858,0.0744 0.39857,0.0748 0.39857,0.0745 0.39857,0.0751 0.39857,0.0746 0.39857,0.0741 0.39857,0.0745 0.39858,0.0732 0.39857,0.0741 0.39857,0.0755 0.39857,0.0733 0.39857,0.0739 0.39857,0.073 0.39857,0.0741 0.39858,0.0743 0.39857,0.0728 0.39857,0.0731 0.39857,0.0736 0.39857,0.0725 0.39857,0.072 0.39857,0.075 0.39858,0.0733 0.39857,0.0733 0.39857,0.0727 0.39857,0.0727 0.39857,0.0732 0.39857,0.0721 0.39857,0.0725 0.39858,0.0719 0.39857,0.0718 0.39857,0.0721 0.39857,0.0718 0.39857,0.0707 0.39857,0.0726 0.39857,0.072 0.39858,0.072 0.39857,0.072 0.39857,0.071 0.39857,0.0722 0.39857,0.0709 0.39857,0.0712 0.39857,0.0703 0.39858,0.0702 0.39857,0.0707 0.39857,0.0695 0.39857,0.0692 0.39857,0.0705 0.39857,0.0696 0.39857,0.0689 0.39858,0.0706 0.39857,0.0691 0.39857,0.0674 0.39857,0.0684 0.39857,0.0693 0.39857,0.0686 0.39857,0.0686 0.39858,0.0696 0.39857,0.0686 0.39857,0.0679 0.39857,0.069 0.39857,0.068 0.39857,0.0675 0.39857,0.0683 0.39858,0.0675 0.39857,0.0667 0.39857,0.0667 0.39857,0.0661 0.39857,0.0666 0.39857,0.0663 0.39857,0.066 0.39858,0.0665 0.39857,0.0655 0.39857,0.0649 0.39857,0.0659 0.39857,0.0659 0.39857,0.065 0.39857,0.0652 0.39858,0.0638 0.39857,0.0649 0.39857,0.0646 0.39857,0.0642 0.39857,0.0641 0.39857,0.0636 0.39857,0.0639 0.39858,0.064 0.39857,0.0638 0.39857,0.0627 0.39857,0.0615 0.39857,0.0626 0.39857,0.0616 0.39857,0.0627 0.39858,0.0616 0.39857,0.0619 0.39857,0.0611 0.39857,0.0604 0.39857,0.0616 0.39857,0.0624 0.39857,0.0623 0.39858,0.061 0.39857,0.0606 0.39857,0.061 0.39857,0.0613 0.39857,0.0601 0.39857,0.0595 0.39857,0.0599 0.39858,0.0596 0.39857,0.0597 0.39857,0.0581 0,10.19361 0,0 -0.39857,-0.0479 -0.39857,-0.047 -0.39858,-0.0478 -0.39857,-0.0464 -0.39857,-0.0471 -0.39857,-0.0462 -0.39857,-0.0486 -0.39857,-0.0479 -0.39857,-0.0479 -0.39858,-0.0481 -0.39857,-0.0491 -0.39857,-0.0479 -0.39857,-0.0484 -0.39857,-0.05 -0.39857,-0.0486 -0.39857,-0.0495 -0.39858,-0.0496 -0.39857,-0.0508 -0.39857,-0.0506 -0.39857,-0.0518 -0.39857,-0.0506 -0.39857,-0.0507 -0.39857,-0.0508 -0.39858,-0.051 -0.39857,-0.0514 -0.39857,-0.0532 -0.39857,-0.0504 -0.39857,-0.0517 -0.39857,-0.0516 -0.39857,-0.0515 -0.39858,-0.0517 -0.39857,-0.0521 -0.39857,-0.0534 -0.39857,-0.0531 -0.39857,-0.0553 -0.39857,-0.0528 -0.39857,-0.0539 -0.39858,-0.0536 -0.39857,-0.0544 -0.39857,-0.0543 -0.39857,-0.054 -0.39857,-0.0545 -0.39857,-0.0547 -0.39857,-0.0553 -0.39858,-0.0549 -0.39857,-0.0553 -0.39857,-0.0552 -0.39857,-0.0563 -0.39857,-0.0563 -0.39857,-0.0568 -0.39857,-0.0558 -0.39858,-0.0558 -0.39857,-0.0565 -0.39857,-0.058 -0.39857,-0.0571 -0.39857,-0.0571 -0.39857,-0.057 -0.39857,-0.0594 -0.39858,-0.0587 -0.39857,-0.0582 -0.39857,-0.0574 -0.39857,-0.0599 -0.39857,-0.0585 -0.39857,-0.0587 -0.39857,-0.0596 -0.39858,-0.0604 -0.39857,-0.0615 -0.39857,-0.0597 -0.39857,-0.0593 -0.39857,-0.0597 -0.39857,-0.0599 -0.39857,-0.0602 -0.39858,-0.0607 -0.39857,-0.0609 -0.39857,-0.0612 -0.39857,-0.0619 -0.39857,-0.0616 -0.39857,-0.0609 -0.39857,-0.0624 -0.39858,-0.0633 -0.39857,-0.0615 -0.39857,-0.0619 -0.39857,-0.0625 -0.39857,-0.0622 -0.39857,-0.0645 -0.39857,-0.0629 -0.39858,-0.0633 -0.39857,-0.063 -0.39857,-0.0631 -0.39857,-0.065 -0.39857,-0.0652 -0.39857,-0.0654 -0.39857,-0.0636 -0.39858,-0.0642 -0.39857,-0.0652 -0.39857,-0.0651 -0.39857,-0.0645 -0.39857,-0.0647 -0.39857,-0.0655 -0.39857,-0.0651 -0.39858,-0.0651 -0.39857,-0.0653 -0.39857,-0.0672 -0.39857,-0.0675 -0.39857,-0.0665 -0.39857,-0.0662 -0.39857,-0.0664 -0.39858,-0.0666 -0.39857,-0.0668 -0.39857,-0.0678 -0.39857,-0.0678 -0.39857,-0.0682 -0.39857,-0.0685 -0.39857,-0.0679 -0.39858,-0.0676 -0.39857,-0.0685 -0.39857,-0.069 -0.39857,-0.0692 -0.39857,-0.0695 -0.39857,-0.0692 -0.39857,-0.069 -0.39858,-0.0696 -0.39857,-0.0701 -0.39857,-0.0692 -0.39857,-0.0693 -0.39857,-0.0695 -0.39857,-0.0707 -0.39857,-0.0704 -0.39858,-0.0705 -0.39857,-0.0703 -0.39857,-0.0703 -0.39857,-0.0705 -0.39857,-0.0708 -0.39857,-0.0707 -0.39857,-0.0712 -0.39858,-0.0708 -0.39857,-0.071 -0.39857,-0.0713 -0.39857,-0.0715 -0.39857,-0.0723 -0.39857,-0.0722 -0.39857,-0.072 -0.39858,-0.0723 -0.39857,-0.0723 -0.39857,-0.0726 -0.39857,-0.0726 -0.39857,-0.0723 -0.39857,-0.0717 -0.39857,-0.0727 -0.39858,-0.0729 -0.39857,-0.073 -0.39857,-0.0731 -0.39857,-0.0733 -0.39857,-0.0734 -0.39857,-0.0735 -0.39857,-0.0731 -0.39858,-0.0732 -0.39857,-0.0735 -0.39857,-0.074 -0.39857,-0.0738 -0.39857,-0.0739 -0.39857,-0.0735 -0.39857,-0.0735 -0.39858,-0.0748 -0.39857,-0.0738 -0.39857,-0.0745 -0.39857,-0.0741 -0.39857,-0.0741 -0.39857,-0.0743 -0.39857,-0.0743 -0.39858,-0.0751 -0.39857,-0.0755 -0.39857,-0.075 -0.39857,-0.0753 -0.39857,-0.0752 -0.39857,-0.0755 -0.39857,-0.0749 -0.39858,-0.0764 -0.39857,-0.0748 -0.39857,-0.0756 -0.39857,-0.0759 -0.39857,-0.0744 -0.39857,-0.0768 -0.39857,-0.075 -0.39858,-0.0753 -0.39857,-0.0757 -0.39857,-0.0761 -0.39857,-0.075 -0.39857,-0.0756 -0.39857,-0.0767 -0.39857,-0.0758 -0.39858,-0.0761 -0.39857,-0.0768 -0.39857,-0.0771 -0.39857,-0.0762 -0.39857,-0.0749 -0.39857,-0.0763 -0.39857,-0.0756 -0.39858,-0.0748 -0.39857,-0.0765 -0.39857,-0.0755 -0.39857,-0.0756 -0.39857,-0.0756 -0.39857,-0.0756 -0.39857,-0.0756 -0.39858,-0.076 -0.39857,-0.0769 -0.39857,-0.0764 -0.39857,-0.0769 -0.39857,-0.0751 -0.39857,-0.0745 -0.39857,-0.0748 -0.39858,-0.0766 -0.39857,-0.0766 -0.39857,-0.0759 -0.39857,-0.0758 -0.39857,-0.0762 -0.39857,-0.0766 -0.39857,-0.0762 -0.39858,-0.0768 -0.39857,-0.074 -0.39857,-0.0766 -0.39857,-0.0767 -0.39857,-0.078 -0.39857,-0.0779 -0.39857,-0.0761 -0.39858,-0.0779 -0.39857,-0.0758 -0.39857,-0.0744 -0.39857,-0.0756 -0.39857,-0.0756 -0.39857,-0.0753 -0.39857,-0.0762 -0.39858,-0.0752 -0.39857,-0.0749 -0.39857,-0.0752 -0.39857,-0.0731 -0.39857,-0.0737 -0.39857,-0.0763 -0.39857,-0.0768 -0.39858,-0.0742 -0.39857,-0.0761 -0.39857,-0.0759 -0.39857,-0.0737 -0.39857,-0.0757 -0.39857,-0.0752 -0.39857,-0.0738 -0.39858,-0.0747 -0.39857,-0.0732 -0.39857,-0.0739 -0.39857,-0.0742 -0.39857,-0.0691 -0.39857,-0.0695 -0.39857,-0.0721 -0.39858,-0.0723 -0.39857,-0.073 -0.39857,-0.0728 -0.39857,-0.0717 -0.39857,-0.0726 -0.39857,-0.0726 -0.39857,-0.0697 -0.39858,-0.0731 -0.39857,-0.0737 -0.39857,-0.0713 -0.39857,-0.0706 -0.39857,-0.0716 -0.39857,-0.0694 -0.39857,-0.0709 -0.39858,-0.0708 -0.39857,-0.0731 -0.39857,-0.0706 -0.39857,-0.0693 -0.39857,-0.0689 -0.39857,-0.0691 -0.39857,-0.0694 -0.39858,-0.0711 -0.39857,-0.0733 -0.39857,-0.0699 -0.39857,-0.0705 -0.39857,-0.0698 -0.39857,-0.0655 -0.39857,-0.0658 -0.39858,-0.0709 -0.39857,-0.0699 -0.39857,-0.0655 -0.39857,-0.066 -0.39857,-0.0659 -0.39857,-0.0681 -0.39857,-0.0657 -0.39858,-0.067 -0.39857,-0.068 -0.39857,-0.067 -0.39857,-0.0646 -0.39857,-0.0663 -0.39857,-0.0663 -0.39857,-0.0644 -0.39858,-0.0655 -0.39857,-0.0647 -0.39857,-0.0664 -0.39857,-0.0656 -0.39857,-0.0646 -0.39857,-0.0606 -0.39857,-0.0631 -0.39858,-0.0646 -0.39857,-0.0653 -0.39857,-0.0619 -0.39857,-0.0629 -0.39857,-0.0665 -0.39857,-0.0613 -0.39857,-0.061 -0.39858,-0.0636 -0.39857,-0.062 -0.39857,-0.0626 -0.39857,-0.0614 -0.39857,-0.0615 -0.39857,-0.0614 -0.39857,-0.0577 -0.39858,-0.0602 -0.39857,-0.0613 -0.39857,-0.0581 -0.39857,-0.0585 -0.39857,-0.0584 -0.39857,-0.0587 -0.39857,-0.0591 -0.39858,-0.0568 -0.39857,-0.0537 -0.39857,-0.0572 -0.39857,-0.0578 -0.39857,-0.0516 -0.39857,-0.0562 -0.39857,-0.0531 -0.39858,-0.0571 -0.39857,-0.0523 -0.39857,-0.0464 -0.39857,-0.05 -0.39857,-0.0475 -0.39857,-0.0469 -0.39857,-0.0575 -0.39858,-0.0426 -0.39857,-0.0346 -0.39857,-0.0187 -0.39857,0.006 -0.39857,0.0806 -0.39857,0.13747 -0.39857,0.27908 -0.39858,0.37388 -0.39857,0.59609 -0.39857,0.78879 -0.39857,0.91714 -0.39857,1.12776 -0.39857,1.23783 -0.39857,1.32384 -0.39858,1.46364 -0.39857,1.49082 -0.39857,1.58848 -0.39857,1.58572 -0.39857,1.60731 -0.39857,1.60311 -0.39857,1.55327 -0.39858,1.49974 -0.39857,1.47769 -0.39857,1.43708 -0.39857,1.30812 -0.39857,1.37095 -0.39857,1.30311 -0.39857,1.1596 -0.39858,1.19219 -0.39857,1.19513 -0.39857,1.06053 -0.39857,0.82765 -0.39857,0.87605 -0.39857,0.9216 -0.39857,0.90295 -0.39858,0.9554 -0.39857,0.93241 -0.39857,1.06279 -0.39857,1.19744 -0.39857,0.90063 -0.39857,0.87581 -0.39857,0.99562 -0.39858,1.05676 -0.39857,1.05739 -0.39857,0.91457 -0.39857,0.89305 -0.39857,1.09027 -0.39857,1.04408 -0.39857,1.21195 -0.39858,1.08466 -0.39857,1.08407 -0.39857,1.27982 -0.39857,1.4415 -0.39857,1.49349 -0.39857,1.79518 -0.39857,1.59659 -0.39858,2.17637 -0.39857,2.31302 -0.39857,2.47514 -0.39857,2.99424 -0.39857,3.10728 -0.39857,3.30027 -0.39857,3.19194 -0.39858,3.23693 -0.39857,3.29333 -0.39857,3.19382 -0.39857,3.23348 -0.39857,3.41844 -0.39857,3.09023 -0.39857,3.13891 -0.39858,2.97888 -0.39857,2.82107 -0.39857,3.23258 -0.39857,2.95755 -0.39857,3.28933 -0.39857,3.17397 -0.39857,3.33445 -0.39858,3.48065 -0.39857,3.47969 -0.39857,3.41843 -0.39857,3.53087 -0.39857,3.75029 -0.39857,3.72148 -0.39857,3.6666 -0.39858,3.62571 -0.39857,3.76462 -0.39857,3.42788 -0.39857,3.34228 -0.39857,2.87176 -0.39857,2.55391 -0.39857,2.00855 -0.39858,1.45943 -0.39857,1.06156 -0.39857,0.22931 -0.39857,0.0241 -0.39857,-0.5423 -0.39857,-0.46428 -0.39857,-0.30101 -0.39858,0.46465 -0.39857,1.4455 -0.39857,2.07584 -0.39857,2.32422 -0.39857,2.64922 -0.39857,2.88358 -0.39857,2.66425 -0.39858,2.57829 -0.39857,2.7295 -0.39857,2.50808 -0.39857,2.41892 -0.39857,2.06451 -0.39857,1.84632 -0.39857,1.22906 -0.39858,1.21346 -0.39857,0.77486 -0.39857,0.63744 -0.39857,0.423 -0.39857,0.44471 -0.39857,0.44943 -0.39857,0.54814 -0.39858,0.89412 -0.39857,1.32895 -0.39857,1.37269 -0.39857,1.73674 -0.39857,2.09576 -0.39857,2.19879 -0.39857,2.1874 -0.39858,2.28687 -0.39857,2.48875 -0.39857,2.16489 -0.39857,2.22743 -0.39857,2.1644 -0.39857,2.24817 -0.39857,2.24131 -0.39858,2.44316 -0.39857,2.7337 -0.39857,3.02336 -0.39857,2.88236 -0.39857,2.68421 -0.39857,2.29417 -0.39857,1.88601 -0.39858,1.22092 -0.39857,0.52802 -0.39857,-0.19325 -0.39857,-0.90609 -0.39857,-0.013 -0.39857,1.33135 -0.39857,1.92418 -0.39858,3.2614 -0.39857,2.99532 -0.39857,2.48431 -0.39857,1.05076 -0.39857,0.85973 -0.39857,0.1808 -0.39857,-0.98812 -0.39858,-1.34321 -0.39857,-1.04093 -0.39857,-0.37703 -0.39857,0.54896 -0.39857,1.02959 -0.39857,1.35233 -0.39857,1.5938 -0.39858,1.58296 -0.39857,1.66707 -0.39857,1.20428 -0.39857,0.50443 -0.39857,0.0175 -0.39857,-0.49184 -0.39857,-0.64876 -0.39858,-0.37606 -0.39857,0.35461 -0.39857,-0.16975 -0.39857,-0.13756 -0.39857,-0.22625 -0.39857,1.38039 -0.39857,2.4601 -0.39858,2.57702 -0.39857,2.05982 -0.39857,1.50345 -0.39857,0.78595 -0.39857,0.34832 -0.39857,-0.22999 -0.39857,-0.50668 -0.39858,-0.53076 -0.39857,-0.53153 -0.39857,-0.0223 -0.39857,0.14882 -0.39857,0.17035 -0.39857,0.0517 -0.39857,-0.37481 -0.39858,-0.64976 -0.39857,-0.85544 -0.39857,-0.85969 -0.39857,-1.3084 -0.39857,-1.5206 -0.39857,-1.26189 -0.39857,-0.56682 -0.39858,0.30294 -0.39857,1.05812 -0.39857,2.20729 -0.39857,3.31614 -0.39857,4.65057 -0.39857,6.19027 -0.39857,7.68026 -0.39858,7.87729 -0.39857,6.82288 -0.39857,6.85649 -0.39857,5.54399 -0.39857,3.68046 -0.39857,2.6676 -0.39857,-0.18523 -0.39858,-2.62446 -0.39857,-5.60548 -0.39857,-8.32311 -0.39857,-10.62371 -0.39857,-12.31127 -0.39857,-12.4253 -0.39857,-14.46683 -0.39858,-14.47128 -0.39857,-15.58528 -0.39857,-15.90847 -0.39857,-15.62305 -0.39857,-15.26044 -0.39857,-14.29825 -0.39857,-12.89682 -0.39858,-11.8663 -0.39857,-10.32709 -0.39857,-9.10007 -0.39857,-8.02053 -0.39857,-6.93901 -0.39857,-6.13382 -0.39857,-5.38896 -0.39858,-4.7424 -0.39857,-4.14083 -0.39857,-3.64778 -0.39857,-3.31131 -0.39857,-2.96041 -0.39857,-2.63081 -0.39857,-2.3876 -0.39858,-2.12923 -0.39857,-1.93481 -0.39857,-1.74847 -0.39857,-1.63944 -0.39857,-1.48135 -0.39857,-1.36062 -0.39857,-1.27852 -0.39858,-1.17256 -0.39857,-1.10718 -0.39857,-1.03518 -0.39857,-0.96695 -0.39857,-0.88391 -0.39857,-0.8398 -0.39857,-0.82241 -0.39858,-0.75813 -0.39857,-0.68209 -0.39857,-0.63202 -0.39857,-0.63125 -0.39857,-0.59453 -0.39857,-0.58824 -0.39857,-0.53993 -0.39858,-0.51938 -0.39857,-0.50619 -0.39857,-0.43463 -0.39857,-0.43314 -0.39857,-0.42942 -0.39857,-0.40633 -0.39857,-0.39732 -0.39858,-0.37358 -0.39857,-0.36392 -0.39857,-0.36266 -0.39857,-0.33623 -0.39857,-0.33434 -0.39857,-0.31359 -0.39857,-0.30431 -0.39858,-0.30043 -0.39857,-0.30106 -0.39857,-0.28195 -0.39857,-0.28118 -0.39857,-0.26607 -0.39857,-0.25374 -0.39857,-0.24058 -0.39858,-0.23454 -0.39857,-0.23976 -0.39857,-0.2283 -0.39857,-0.23331 -0.39857,-0.22346 -0.39857,-0.23213 -0.39857,-0.21628 -0.39858,-0.20927 -0.39857,-0.20366 -0.39857,-0.20267 -0.39857,-0.20344 -0.39857,-0.20216 -0.39857,-0.19139 -0.39857,-0.18888 -0.39858,-0.17993 -0.39857,-0.18277 -0.39857,-0.17759 -0.39857,-0.16623 -0.39857,-0.16894 -0.39857,-0.16951 -0.39857,-0.16641 -0.39858,-0.16514 -0.39857,-0.15996 -0.39857,-0.17019 -0.39857,-0.16575 -0.39857,-0.15948 -0.39857,-0.16092 -0.39857,-0.16064 -0.39858,-0.15543 -0.39857,-0.15884 -0.39857,-0.15216 -0.39857,-0.15099 -0.39857,-0.14759 -0.39857,-0.15425 -0.39857,-0.14537 -0.39858,-0.14289 -0.39857,-0.1435 -0.39857,-0.14885 -0.39857,-0.14416 -0.39857,-0.14194 -0.39857,-0.14318 -0.39857,-0.14223 -0.39858,-0.13716 -0.39857,-0.14049 -0.39857,-0.14445 -0.39857,-0.13926 -0.39857,-0.13624 -0.39857,-0.13638 -0.39857,-0.14131 -0.39858,-0.13623 -0.39857,-0.13483 -0.39857,-0.13253 -0.39857,-0.13124 -0.39857,-0.13096 -0.39857,-0.13698 -0.39857,-0.13458 -0.39858,-0.13217 -0.39857,-0.13121 -0.39857,-0.13496 -0.39857,-0.13073 -0.39857,-0.1335 -0.39857,-0.12951 -0.39857,-0.13428 -0.39858,-0.1309 -0.39857,-0.12748 -0.39857,-0.12571 -0.39857,-0.1294 -0.39857,-0.13099 -0.39857,-0.12631 -0.39857,-0.12983 -0.39858,-0.1232 -0.39857,-0.12266 -0.39857,-0.12838 -0.39857,-0.13038 -0.39857,-0.12955 -0.39857,-0.13071 -0.39857,-0.12907 -0.39858,-0.12563 -0.39857,-0.12881 -0.39857,-0.12758 -0.39857,-0.12882 -0.39857,-0.12627 -0.39857,-0.12837 -0.39857,-0.12517 -0.39858,-0.12761 -0.39857,-0.12194 -0.39857,-0.12915 -0.39857,-0.12653 -0.39857,-0.12781 -0.39857,-0.12779 -0.39857,-0.12828 -0.39858,-0.1269 -0.39857,-0.12607 -0.39857,-0.12555 -0.39857,-0.12412 -0.39857,-0.12471 -0.39857,-0.12496 -0.39857,-0.12789 -0.39858,-0.12584 -0.39857,-0.12442 -0.39857,-0.12816 -0.39857,-0.1278 -0.39857,-0.12806 -0.39857,-0.12718 -0.39857,-0.12661 -0.39858,-0.12509 -0.39857,-0.12795 -0.39857,-0.12563 -0.39857,-0.12652 -0.39857,-0.1296 -0.39857,-0.12862 -0.39857,-0.12937 -0.39858,-0.12751 -0.39857,-0.12822 -0.39857,-0.12816 -0.39857,-0.12868 -0.39857,-0.12779 -0.39857,-0.12789 -0.39857,-0.12955 -0.39858,-0.12638 -0.39857,-0.12772 -0.39857,-0.12951 -0.39857,-0.13026 -0.39857,-0.12882 -0.39857,-0.12935 -0.39857,-0.1293 -0.39858,-0.12968 -0.39857,-0.13182 -0.39857,-0.13144 -0.39857,-0.12977 -0.39857,-0.13328 -0.39857,-0.13223 -0.39857,-0.13259 -0.39858,-0.13091 -0.39857,-0.13274 -0.39857,-0.13335 -0.39857,-0.13159 -0.39857,-0.13143 -0.39857,-0.13074 -0.39857,-0.12849 -0.39858,-0.13177 -0.39857,-0.13474 -0.39857,-0.13266 -0.39857,-0.13381 -0.39857,-0.13332 -0.39857,-0.13428 -0.39857,-0.1329 -0.39858,-0.13424 -0.39857,-0.1348 -0.39857,-0.13559 -0.39857,-0.13567 -0.39857,-0.13284 -0.39857,-0.1341 -0.39857,-0.13338 -0.39858,-0.13573 -0.39857,-0.1371 -0.39857,-0.13628 -0.39857,-0.13264 -0.39857,-0.13532 -0.39857,-0.13629 -0.39857,-0.13638 -0.39858,-0.13606 -0.39857,-0.13581 -0.39857,-0.13601 -0.39857,-0.13615 -0.39857,-0.13534 -0.39857,-0.13868 -0.39857,-0.13836 -0.39858,-0.13794 -0.39857,-0.1376 -0.39857,-0.13805 -0.39857,-0.13784 -0.39857,-0.13607 -0.39857,-0.1387 -0.39857,-0.13781 -0.39858,-0.13788 -0.39857,-0.13864 -0.39857,-0.13744 -0.39857,-0.13856 -0.39857,-0.13784 -0.39857,-0.13818 -0.39857,-0.13844 -0.39858,-0.13852 -0.39857,-0.13862 -0.39857,-0.13917 -0.39857,-0.13996 -0.39857,-0.13894 -0.39857,-0.13906 -0.39857,-0.13919 -0.39858,-0.13921 -0.39857,-0.1393 -0.39857,-0.13941 -0.39857,-0.1406 -0.39857,-0.13912 -0.39857,-0.1398 -0.39857,-0.13933 -0.39858,-0.13982 -0.39857,-0.14077 -0.39857,-0.14082 -0.39857,-0.14089 -0.39857,-0.14051 -0.39857,-0.13937 -0.39857,-0.13995 -0.39858,-0.13967 -0.39857,-0.14033 -0.39857,-0.141 -0.39857,-0.13978 -0.39857,-0.13788 -0.39857,-0.14038 -0.39857,-0.13939 -0.39858,-0.13972 -0.39857,-0.13902 -0.39857,-0.13983 -0.39857,-0.13994 -0.39857,-0.13974 -0.39857,-0.13852 -0.39857,-0.1392 -0.39858,-0.13959 -0.39857,-0.13954 -0.39857,-0.13917 -0.39857,-0.13659 -0.39857,-0.13644 -0.39857,-0.13735 -0.39857,-0.13909 -0.39858,-0.13875 -0.39857,-0.13673 -0.39857,-0.13599 -0.39857,-0.13696 -0.39857,-0.13728 -0.39857,-0.13714 -0.39857,-0.13665 -0.39858,-0.1372 -0.39857,-0.13627 -0.39857,-0.13624 -0.39857,-0.13618 -0.39857,-0.13596 -0.39857,-0.13578 -0.39857,-0.13576 -0.39858,-0.13491 -0.39857,-0.13651 -0.39857,-0.13632 -0.39857,-0.13411 -0.39857,-0.13428 -0.39857,-0.13247 -0.39857,-0.13482 -0.39858,-0.13534 -0.39857,-0.13485 -0.39857,-0.13329 -0.39857,-0.13329 -0.39857,-0.13407 -0.39857,-0.1326 -0.39857,-0.13141 -0.39858,-0.13044 -0.39857,-0.1325 -0.39857,-0.13054 -0.39857,-0.12869 -0.39857,-0.13012 -0.39857,-0.12881 -0.39857,-0.13114 -0.39858,-0.12894 -0.39857,-0.12966 -0.39857,-0.12973 -0.39857,-0.12706 -0.39857,-0.12763 -0.39857,-0.12639 -0.39857,-0.12622 -0.39858,-0.12678 -0.39857,-0.12743 -0.39857,-0.12657 -0.39857,-0.12463 -0.39857,-0.12365 -0.39857,-0.12547 -0.39857,-0.12517 -0.39858,-0.12517 -0.39857,-0.12495 -0.39857,-0.1241 -0.39857,-0.12285 -0.39857,-0.1229 -0.39857,-0.12359 -0.39857,-0.12105 -0.39858,-0.12101 -0.39857,-0.11928 -0.39857,-0.1188 -0.39857,-0.11666 -0.39857,-0.11888 -0.39857,-0.11797 -0.39857,-0.11691 -0.39858,-0.11629 -0.39857,-0.11566 -0.39857,-0.11535 -0.39857,-0.11476 -0.39857,-0.11478 -0.39857,-0.11535 -0.39857,-0.11444 -0.39858,-0.11374 -0.39857,-0.11363 -0.39857,-0.11423 -0.39857,-0.11215 -0.39857,-0.1097 -0.39857,-0.1118 -0.39857,-0.11134 -0.39858,-0.11207 -0.39857,-0.10874 -0.39857,-0.10692 -0.39857,-0.10754 -0.39857,-0.10891 -0.39857,-0.10697 -0.39857,-0.10584 -0.39858,-0.10397 -0.39857,-0.10316 -0.39857,-0.10276 -0.39857,-0.10269 -0.39857,-0.10235 -0.39857,-0.10546 -0.39857,-0.1018 -0.39858,-0.10251 -0.39857,-0.10044 -0.39857,-0.10099 -0.39857,-0.0981 -0.39857,-0.1005 -0.39857,-0.0981 -0.39857,-0.0975 -0.39858,-0.0974 -0.39857,-0.0949 -0.39857,-0.0949 -0.39857,-0.0968 -0.39857,-0.0939 -0.39857,-0.093 -0.39857,-0.092 -0.39858,-0.0943 -0.39857,-0.0911 -0.39857,-0.0911 -0.39857,-0.091 -0.39857,-0.0908 -0.39857,-0.09 -0.39857,-0.089 -0.39858,-0.0893 -0.39857,-0.0894 -0.39857,-0.0886 -0.39857,-0.0848 -0.39857,-0.0861 -0.39857,-0.0858 -0.39857,-0.0848 -0.39858,-0.0865 -0.39857,-0.0832 -0.39857,-0.0837 -0.39857,-0.0832 -0.39857,-0.0826 -0.39857,-0.0819 -0.39857,-0.0813 -0.39858,-0.0787 -0.39857,-0.0794 -0.39857,-0.0803 -0.39857,-0.0788 -0.39857,-0.0775 -0.39857,-0.0749 -0.39857,-0.0753 -0.39858,-0.0718 -0.39857,-0.0715 -0.39857,-0.0719 -0.39857,-0.0716 -0.39857,-0.0709 -0.39857,-0.0691 -0.39857,-0.0704 -0.39858,-0.0685 -0.39857,-0.0682 -0.39857,-0.068 -0.39857,-0.0677 -0.39857,-0.0662 -0.39857,-0.0656 -0.39857,-0.0659 -0.39858,-0.0646 -0.39857,-0.0613 -0.39857,-0.0625 -0.39857,-0.0573 -0.39857,-0.0588 -0.39857,-0.0562 -0.39857,-0.053 -0.39858,-0.0483 -0.39857,-0.0457 -0.39857,-0.0425 -0.39857,-0.0361 -0.39857,-0.0317 -0.39857,-0.0237 -0.39857,-0.0196 -0.39858,-8.9e-4 -0.39857,0.005 -0.39857,0.0257 -0.39857,0.0419 -0.39857,0.0594 -0.39857,0.0932 -0.39857,0.14764 -0.39858,0.21704 -0.39857,0.26931 -0.39857,0.3305 -0.39857,0.46016 -0.39857,0.56852 -0.39857,0.73115 -0.39857,0.95142 -0.39858,1.24368 -0.39857,1.55218 -0.39857,1.96463 -0.39857,2.54021 -0.39857,3.0147 -0.39857,3.40623 -0.39857,3.73343 -0.39858,3.96456 -0.39857,4.17798 -0.39857,4.3167 -0.39857,4.38042 -0.39857,4.41568 -0.39857,4.39193 -0.39857,4.34121 -0.39858,4.24893 -0.39857,4.14774 -0.39857,4.04302 -0.39857,3.92634 -0.39857,3.81004 -0.39857,3.69977 -0.39857,3.58865 -0.39858,3.49813 -0.39857,3.40919 -0.39857,3.32593 -0.39857,3.25782 -0.39857,3.1966 -0.39857,3.14236 -0.39857,3.09898 -0.39858,3.0574 -0.39857,3.03332 -0.39857,3.00426 -0.39857,2.98851 -0.39857,2.97446 -0.39857,2.96636 -0.39857,2.96441 -0.39858,2.96849 -0.39857,2.971 -0.39857,2.97816 -0.39857,2.98343 -0.39857,2.99584 -0.39857,3.01189 -0.39857,3.02646 -0.39858,3.04872 -0.39857,3.06012 -0.39857,3.08443 -0.39857,3.10555 -0.39857,3.12661 -0.39857,3.14863 -0.39857,3.17619 -0.39858,3.19449 -0.39857,3.21872 -0.39857,3.25462 -0.39857,3.27189 -0.39857,3.29366 -0.39857,3.32298 -0.39857,3.34542 -0.39858,3.37477 -0.39857,3.39505 -0.39857,3.41439 -0.39857,3.44008 -0.39857,3.464 -0.39857,3.48148 -0.39857,3.49891 -0.39858,3.51769 -0.39857,3.52857 -0.39857,3.53661 -0.39857,3.55195 -0.39857,3.5518 -0.39857,3.55156 -0.39857,3.55125 -0.39858,3.53763 -0.39857,3.53739 -0.39857,3.52245 -0.39857,3.48996 -0.39857,3.46678 -0.39857,3.43074 -0.39857,3.3859 -0.39858,3.3374 -0.39857,3.27776 -0.39857,3.21397 -0.39857,3.13693 -0.39857,3.0499 -0.39857,2.95272 -0.39857,2.8502 -0.39858,2.72864 -0.39857,2.59514 -0.39857,2.4471 -0.39857,2.28196 -0.39857,2.1002 -0.39857,1.87275 -0.39857,1.61165 -0.39858,1.25877 -0.39857,0.90881 -0.39857,0.84053 -0.39857,0.9982 -0.39857,1.05379 -0.39857,0.95881 -0.39857,0.82199 -0.39858,0.60587 -0.39857,0.54243 -0.39857,0.18084 -0.39857,-0.86955 -0.39857,-2.52543 -0.39857,-4.42729 -0.39857,-5.80501 -0.39858,-6.70817 -0.39857,-8.33669 -0.39857,-13.15357 -0.39857,-17.86683 -0.39857,-20.55673 -0.39857,-20.9796 -0.39857,-19.77652 -0.39858,-17.8586 -0.39857,-15.51091 -0.39857,-13.25562 -0.39857,-11.21787 -0.39857,-9.55651 -0.39857,-8.04781 -0.39857,-6.88149 -0.39858,-5.90585 -0.39857,-5.09752 -0.39857,-4.46502 -0.39857,-3.87934 -0.39857,-3.41385 -0.39857,-3.02675 -0.39857,-2.71005 -0.39858,-2.43915 -0.39857,-2.17184 -0.39857,-2.00835 -0.39857,-1.82478 -0.39857,-1.68262 -0.39857,-1.54911 -0.39857,-1.43629 -0.39858,-1.33257 -0.39857,-1.23177 -0.39857,-1.16093 -0.39857,-1.09706 -0.39857,-1.04704 -0.39857,-0.97754 -0.39857,-0.9351 -0.39858,-0.89886 -0.39857,-0.85079 -0.39857,-0.81979 -0.39857,-0.78803 -0.39857,-0.76438 -0.39857,-0.73304 -0.39857,-0.72189 -0.39858,-0.68666 -0.39857,-0.67293 -0.39857,-0.65698 -0.39857,-0.64064 -0.39857,-0.6262 -0.39857,-0.61314 -0.39857,-0.61343 -0.39858,-0.60816 -0.39857,-0.59194 -0.39857,-0.58633 -0.39857,-0.57254 -0.39857,-0.57019 -0.39857,-0.56644 -0.39857,-0.56161 -0.39858,-0.56052 -0.39857,-0.55753 -0.39857,-0.55851 -0.39857,-0.55574 -0.39857,-0.55873 -0.39857,-0.55525 -0.39857,-0.55526 -0.39858,-0.55855 -0.39857,-0.56141 -0.39857,-0.56271 -0.39857,-0.56701 -0.39857,-0.57394 -0.39857,-0.57209 -0.39857,-0.57978 -0.39858,-0.58395 -0.39857,-0.59147 -0.39857,-0.59675 -0.39857,-0.60551 -0.39857,-0.61262 -0.39857,-0.62218 -0.39857,-0.63172 -0.39858,-0.64073 -0.39857,-0.10669 -0.39857,0.002 -0.39857,0.003 -0.39857,0.002 -0.39857,0.001 -0.39857,0.002 -0.39858,0.002 -0.39857,0.002 -0.39857,0.002 -0.39857,0.002 -0.39857,0.001 -0.39857,0.001 -0.39857,0.001 -0.39858,0.002 -0.39857,10e-4 -0.39857,0.001 -0.39857,0.001 -0.39857,0.001 -0.39857,5.3e-4 -0.39857,7.3e-4 -0.39858,6.9e-4 -0.39857,0.001 -0.39857,0.002 -0.39857,0.002 -0.39857,6.8e-4 -0.39857,0.001 -0.39857,10e-4 -0.39858,7.1e-4 -0.39857,6.4e-4 -0.39857,5.9e-4 -0.39857,-1.1e-4 -0.39857,-5.9e-4 -0.39857,2.4e-4 -0.39857,2.5e-4 -0.39858,-2.9e-4 -0.39857,-2.4e-4 -0.39857,1.5e-4 -0.39857,2e-5 -0.39857,-2.6e-4 -0.39857,-0.002 -0.39857,-0.002 -0.39858,-0.002 -0.39857,-0.001 -0.39857,-8.1e-4 -0.39857,-5.6e-4 -0.39857,-4e-4 -0.39857,-4.5e-4 -0.39857,-4.8e-4 -0.39858,-8.9e-4 -0.39857,-0.001 -0.39857,-4.4e-4 -0.39857,-0.002 -0.39857,-0.002 -0.39857,-0.002 -0.39857,-0.002 -0.39858,-8.6e-4 -0.39857,-0.003 -0.39857,-0.002 -0.39857,-0.002 -0.39857,-0.003 -0.39857,-0.003 -0.39857,-0.003 -0.39858,-0.002 -0.39857,-0.002 -0.39857,-0.004 -0.39857,-0.003 -0.39857,-0.002 -0.39857,-0.002 -0.39857,-0.004 -0.39858,-0.003 -0.39857,-0.003 -0.39857,-0.002 -0.39857,-0.003 -0.39857,-0.005 -0.39857,-0.004 -0.39857,-0.004 -0.39858,-0.004 -0.39857,-0.005 -0.39857,-0.005 -0.39857,-0.006 -0.39857,-0.004 -0.39857,-0.005 -0.39857,-0.006 -0.39858,-0.005 -0.39857,-0.005 -0.39857,-0.004 -0.39857,-0.005 -0.39857,-0.007 -0.39857,-0.008 -0.39857,-0.007 -0.39858,-0.005 -0.39857,-0.007 -0.39857,-0.007 -0.39857,-0.007 -0.39857,-0.008 -0.39857,-0.004 -0.39857,-0.006 -0.39858,-0.005 -0.39857,-0.007 -0.39857,-0.003 -0.39857,-0.007 -0.39857,-0.009 -0.39857,-0.006 -0.39857,-0.007 -0.39858,-0.008 -0.39857,-0.006 -0.39857,-0.01 -0.39857,-0.009 -0.39857,-0.007 -0.39857,-0.007 -0.39857,-0.007 -0.39858,-0.008 -0.39857,-0.005 -0.39857,-0.005 -0.39857,-0.006 -0.39857,-0.008 -0.39857,-0.01 -0.39857,-0.0108 -0.39858,-0.01 -0.39857,-0.012 -0.39857,-0.009 -0.39857,-0.01 -0.39857,-0.0106 -0.39857,-0.01 -0.39857,-0.009 -0.39858,-0.012 -0.39857,-0.01 -0.39857,-0.0121 -0.39857,-0.0123 -0.39857,-0.0131 -0.39857,-0.009 -0.39857,-0.0117 -0.39858,-0.009 -0.39857,-0.0155 -0.39857,-0.0142 -0.39857,-0.009 -0.398571,-0.0101 -0.398572,-0.008 -0.398571,-0.01 -0.398572,-0.009 -0.398571,-0.0139 -0.398571,-0.0147 -0.398572,-0.0135 -0.398571,-0.0111 -0.398572,-0.014 -0.398571,-0.0114 -0.398572,-0.0135 -0.398571,-0.015 -0.398571,-0.0113 -0.398572,-0.0118 -0.398571,-0.0137 -0.398572,-0.0141 -0.398571,-0.0113 -0.398572,-0.0117 -0.398571,-0.0134 -0.398571,-0.0112 -0.398572,-0.0113 -0.398571,-0.0119 -0.398572,-0.0139 -0.398571,-0.0107 -0.398572,-0.0157 -0.398571,-0.0133 -0.398571,-0.0111 -0.398572,-0.0121 -0.398571,-0.0164 -0.398572,-0.0155 -0.398571,-0.0173 -0.398572,-0.013 -0.398571,-0.0153 -0.398571,-0.0127 -0.398572,-0.0101 -0.398571,-0.0152 -0.398572,-0.0141 -0.398571,-0.0172 -0.398572,-0.0126 -0.398571,-0.0112 -0.398571,-0.0163 -0.398572,-0.0162 -0.398571,-0.0146 -0.398572,-0.0129 -0.398571,-0.0177 -0.398572,-0.018 -0.398571,-0.0188 -0.398571,-0.0119 -0.398572,-0.0166 -0.398571,-0.0135 -0.398572,-0.0145 -0.398571,-0.0175 -0.398572,-0.0139 -0.398571,-0.015 -0.398571,-0.0187 -0.398572,-0.017 -0.398571,-0.0178 -0.398572,-0.0192 -0.398571,-0.0166 -0.398572,-0.015 -0.398571,-0.0123 -0.398571,-0.0161 -0.398572,-0.0152 -0.398571,-0.0202 z"
                     style="fill:#426e86;fill-opacity:0.50196081;fill-rule:nonzero;stroke:none;stroke-width:0.30000001;stroke-linecap:butt;stroke-linejoin:round;stroke-miterlimit:10;stroke-dasharray:none;stroke-opacity:0.5"
                     id="path358"
                     inkscape:connector-curvature="0" /></g></g><g
                 id="g360"><path
                   d="m 74.441739,54.103137 558.000001,0"
                   style="fill:none;stroke:#999999;stroke-width:1;stroke-linecap:square;stroke-linejoin:miter;stroke-miterlimit:10;stroke-dasharray:none;stroke-opacity:1"
                   id="path362"
                   inkscape:connector-curvature="0" /><path
                   d="m 74.441739,54.103137 0,432.000003"
                   style="fill:none;stroke:#999999;stroke-width:1;stroke-linecap:square;stroke-linejoin:miter;stroke-miterlimit:10;stroke-dasharray:none;stroke-opacity:1"
                   id="path364"
                   inkscape:connector-curvature="0" /></g><g
                 id="g366"><g
                   id="g368"
                   clip-path="url(#clipPath370)"><path
                     d="m 74.441739,150.05482 79.315711,0.0496 0.39857,0.11157 2.79,4.44035 3.58715,5.24828 6.37714,9.20319 2.39143,3.90796 1.59428,2.95705 1.59429,3.40605 1.19571,2.98411 1.19572,3.51286 1.19571,4.2662 1.19572,5.3745 0.79714,4.47494 0.79714,5.49076 0.79715,6.90553 0.79714,8.91796 0.79714,11.81935 0.79714,15.96285 0.79715,21.49346 0.79714,27.57182 2.39143,92.82172 0.79714,21.40053 0.39857,7.19507 0.39857,4.90333 0.39858,2.92906 0.39857,1.37275 0.39857,0.2256 0.39857,-0.58447 0.39857,-1.14757 0.79714,-3.37922 1.19572,-6.70226 1.59428,-10.83215 1.99286,-15.50703 3.18857,-27.06653 5.58,-47.57029 3.58715,-28.60985 3.98571,-29.93492 4.78286,-35.91925 1.99285,-16.82053 1.59429,-15.18973 1.99286,-21.24622 1.99285,-20.93065 1.19572,-9.89793 0.79714,-4.89254 0.79714,-3.55216 0.79715,-2.42675 0.79714,-1.57669 0.79714,-0.98147 0.79715,-0.58506 0.79714,-0.32887 1.19571,-0.20707 1.59429,0.001 2.79,0.29767 5.18143,0.83293 7.17428,1.37391 7.57286,1.6752 7.57286,1.90136 7.97143,2.23281 8.76857,2.6984 9.96428,3.3089 14.34857,5.02841 22.71858,7.95861 13.15285,4.35516 15.14572,4.76503 19.13143,6.0206 6.77571,2.37107 4.78286,1.89099 3.58714,1.62815 3.18857,1.69503 2.39143,1.51019 1.99286,1.49614 1.59428,1.42359 1.59429,1.7158 1.19571,1.55991 1.19572,1.89508 1.19571,2.3771 0.79714,1.96417 0.79715,2.38435 0.79714,2.94569 0.79714,3.68756 0.79715,4.62283 1.19571,8.87438 1.59429,14.26544 1.99285,17.65477 0.79715,5.47746 1.19571,6.2526 2.79,13.26171 3.18857,15.35744 1.19572,4.64792 4.38428,15.34949 2.39143,6.59883 1.59429,5.0961 0.79714,1.7415 0.39857,0.48753 0.39857,0.23259 0.39857,0.0146 0.79715,-0.41062 1.19571,-1.10707 0.79714,-1.03064 0.79715,-1.50669 0.79714,-2.11243 1.19571,-4.1189 1.19572,-4.87394 1.19571,-5.88553 1.19572,-7.31391 1.59428,-11.36431 2.79,-21.78427 3.18857,-24.78299 1.99286,-13.71055 2.39143,-14.903 1.99286,-11.26909 1.59428,-8.00775 1.59429,-6.96144 2.39143,-9.07795 4.78285,-17.63192 1.59429,-4.61219 1.59428,-3.80434 1.19572,-2.3618 1.19571,-1.96386 1.19572,-1.59056 1.19571,-2.72236 0.79714,-1.34126 1.19572,-1.46393 1.19571,-1.01913 1.19572,-0.73394 1.59428,-0.70046 1.99286,-0.62307 3.18857,-0.74295 9.16714,-1.79905 1.99286,0.0117 3.18857,0.2758 7.57286,0.94383 11.16,1.61545 12.35571,2.02253 14.74715,2.6528 56.19857,10.35948 13.95,2.2074 13.55143,1.91754 3.18857,0.41689 0,0"
                     style="fill:none;stroke:#335366;stroke-width:2;stroke-linecap:round;stroke-linejoin:round;stroke-miterlimit:10;stroke-dasharray:none;stroke-opacity:1"
                     id="path374"
                     inkscape:connector-curvature="0" /></g></g></g><g
               transform="translate(31.832198,-130.90125)"
               id="g4528"><path
                 d="m 436.07676,467.20314 30.8,0"
                 style="fill:none;stroke:#426e86;stroke-width:2;stroke-linecap:round;stroke-linejoin:round;stroke-miterlimit:10;stroke-dasharray:none;stroke-opacity:1"
                 id="path384"
                 inkscape:connector-curvature="0" /><text
                 transform="matrix(1,0,0,-1,478.07677,462.30314)"
                 style="font-variant:normal;font-weight:normal;font-size:13.94769573px;font-family:LMRoman12;-inkscape-font-specification:LMRoman12-Regular;writing-mode:lr-tb;fill:#262626;fill-opacity:1;fill-rule:nonzero;stroke:none"
                 id="text386"><tspan
                   x="0 11.38132 17.448568 24.268991"
                   y="0"
                   sodipodi:role="line"
                   id="tspan388">mean</tspan></text>
<path
                 d="m 436.07676,442.79111 30.8,0 0,9.8 -30.8,0 0,-9.8 z"
                 style="fill:#335366;fill-opacity:0.50196081;fill-rule:nonzero;stroke:none;stroke-width:0.30000001;stroke-linecap:butt;stroke-linejoin:miter;stroke-miterlimit:10;stroke-dasharray:none;stroke-opacity:1"
                 id="path390"
                 inkscape:connector-curvature="0" /><text
                 transform="matrix(1,0,0,-1,478.07677,442.79111)"
                 style="font-variant:normal;font-weight:normal;font-size:13.94769573px;line-height:125%;font-family:LMRoman12;-inkscape-font-specification:LMRoman12-Regular;writing-mode:lr-tb;fill:#262626;fill-opacity:1;fill-rule:nonzero;stroke:none"
                 id="text392"
                 sodipodi:linespacing="125%"><tspan
                   y="0"
                   x="0"
                   sodipodi:role="line"
                   id="tspan4524">90%confidence interval</tspan></text>
</g></g></g></g></g></g></svg>