<?xml version="1.0" encoding="UTF-8" standalone="no"?>
<!-- Created with Inkscape (http://www.inkscape.org/) -->

<svg
   xmlns:dc="http://purl.org/dc/elements/1.1/"
   xmlns:cc="http://creativecommons.org/ns#"
   xmlns:rdf="http://www.w3.org/1999/02/22-rdf-syntax-ns#"
   xmlns:svg="http://www.w3.org/2000/svg"
   xmlns="http://www.w3.org/2000/svg"
   xmlns:sodipodi="http://sodipodi.sourceforge.net/DTD/sodipodi-0.dtd"
   xmlns:inkscape="http://www.inkscape.org/namespaces/inkscape"
   id="svg2"
   version="1.1"
   inkscape:version="0.91 r13725"
   xml:space="preserve"
   width="900"
   height="684.68994"
   viewBox="0 0 900 684.68994"
   sodipodi:docname="hh_pointwise.svg"
   inkscape:export-filename="/home/simen/Dropbox/phd/presentations/presentations/uncertainpy/hh_pointwise.png"
   inkscape:export-xdpi="90"
   inkscape:export-ydpi="90"><metadata
     id="metadata8"><rdf:RDF><cc:Work
         rdf:about=""><dc:format>image/svg+xml</dc:format><dc:type
           rdf:resource="http://purl.org/dc/dcmitype/StillImage" /><dc:title></dc:title></cc:Work></rdf:RDF></metadata><defs
     id="defs6"><clipPath
       clipPathUnits="userSpaceOnUse"
       id="clipPath148"><path
         d="m 90,54 558,0 0,432 -558,0 0,-432 z"
         id="path150"
         inkscape:connector-curvature="0" /></clipPath><clipPath
       clipPathUnits="userSpaceOnUse"
       id="clipPath158"><path
         d="m 90,54 558,0 0,432 -558,0 0,-432 z"
         id="path160"
         inkscape:connector-curvature="0" /></clipPath><clipPath
       clipPathUnits="userSpaceOnUse"
       id="clipPath168"><path
         d="m 90,54 558,0 0,432 -558,0 0,-432 z"
         id="path170"
         inkscape:connector-curvature="0" /></clipPath></defs><sodipodi:namedview
     pagecolor="#ffffff"
     bordercolor="#666666"
     borderopacity="1"
     objecttolerance="10"
     gridtolerance="10"
     guidetolerance="10"
     inkscape:pageopacity="0"
     inkscape:pageshadow="2"
     inkscape:window-width="1863"
     inkscape:window-height="1056"
     id="namedview4"
     showgrid="false"
     fit-margin-top="0"
     fit-margin-left="0"
     fit-margin-right="0"
     fit-margin-bottom="0"
     inkscape:zoom="1.2074208"
     inkscape:cx="439.32125"
     inkscape:cy="423.91115"
     inkscape:window-x="1977"
     inkscape:window-y="24"
     inkscape:window-maximized="1"
     inkscape:current-layer="g10" /><g
     id="g10"
     inkscape:groupmode="layer"
     inkscape:label="hh"
     transform="matrix(1.25,0,0,-1.25,0,675)"><path
       d="M 0,0 720,0 720,540 0,540 0,0 Z"
       style="fill:#ffffff;fill-opacity:1;fill-rule:nonzero;stroke:none"
       id="path12"
       inkscape:connector-curvature="0" /><g
       id="g4336"
       transform="translate(0,8.7296081)"><path
         inkscape:connector-curvature="0"
         id="path16"
         style="fill:#999999;fill-opacity:1;fill-rule:nonzero;stroke:#999999;stroke-width:1;stroke-linecap:butt;stroke-linejoin:round;stroke-miterlimit:10;stroke-dasharray:none;stroke-opacity:1"
         d="m 90,54 0,-5" /><text
         id="text18"
         style="font-variant:normal;font-weight:normal;font-size:15.94022369px;font-family:LMRoman17;-inkscape-font-specification:LMRoman17-Regular;writing-mode:lr-tb;fill:#000000;fill-opacity:1;fill-rule:nonzero;stroke:none"
         transform="matrix(1,0,0,-1,86.344724,31.109352)"><tspan
           id="tspan20"
           y="0"
           x="0">0</tspan></text>
<path
         inkscape:connector-curvature="0"
         id="path22"
         style="fill:#999999;fill-opacity:1;fill-rule:nonzero;stroke:#999999;stroke-width:1;stroke-linecap:butt;stroke-linejoin:round;stroke-miterlimit:10;stroke-dasharray:none;stroke-opacity:1"
         d="m 152,54 0,-5" /><text
         id="text24"
         style="font-variant:normal;font-weight:normal;font-size:15.94022369px;font-family:LMRoman17;-inkscape-font-specification:LMRoman17-Regular;writing-mode:lr-tb;fill:#000000;fill-opacity:1;fill-rule:nonzero;stroke:none"
         transform="matrix(1,0,0,-1,148.34472,31.109352)"><tspan
           id="tspan26"
           y="0"
           x="0">5</tspan></text>
<path
         inkscape:connector-curvature="0"
         id="path28"
         style="fill:#999999;fill-opacity:1;fill-rule:nonzero;stroke:#999999;stroke-width:1;stroke-linecap:butt;stroke-linejoin:round;stroke-miterlimit:10;stroke-dasharray:none;stroke-opacity:1"
         d="m 214,54 0,-5" /><text
         id="text30"
         style="font-variant:normal;font-weight:normal;font-size:15.94022369px;font-family:LMRoman17;-inkscape-font-specification:LMRoman17-Regular;writing-mode:lr-tb;fill:#000000;fill-opacity:1;fill-rule:nonzero;stroke:none"
         transform="matrix(1,0,0,-1,206.68945,31.109352)"><tspan
           id="tspan32"
           sodipodi:role="line"
           y="0"
           x="0 7.3006225">10</tspan></text>
<path
         inkscape:connector-curvature="0"
         id="path34"
         style="fill:#999999;fill-opacity:1;fill-rule:nonzero;stroke:#999999;stroke-width:1;stroke-linecap:butt;stroke-linejoin:round;stroke-miterlimit:10;stroke-dasharray:none;stroke-opacity:1"
         d="m 276,54 0,-5" /><text
         id="text36"
         style="font-variant:normal;font-weight:normal;font-size:15.94022369px;font-family:LMRoman17;-inkscape-font-specification:LMRoman17-Regular;writing-mode:lr-tb;fill:#000000;fill-opacity:1;fill-rule:nonzero;stroke:none"
         transform="matrix(1,0,0,-1,268.68945,31.109352)"><tspan
           id="tspan38"
           sodipodi:role="line"
           y="0"
           x="0 7.3006225">15</tspan></text>
<path
         inkscape:connector-curvature="0"
         id="path40"
         style="fill:#999999;fill-opacity:1;fill-rule:nonzero;stroke:#999999;stroke-width:1;stroke-linecap:butt;stroke-linejoin:round;stroke-miterlimit:10;stroke-dasharray:none;stroke-opacity:1"
         d="m 338,54 0,-5" /><text
         id="text42"
         style="font-variant:normal;font-weight:normal;font-size:15.94022369px;font-family:LMRoman17;-inkscape-font-specification:LMRoman17-Regular;writing-mode:lr-tb;fill:#000000;fill-opacity:1;fill-rule:nonzero;stroke:none"
         transform="matrix(1,0,0,-1,330.68945,31.109352)"><tspan
           id="tspan44"
           sodipodi:role="line"
           y="0"
           x="0 7.3006225">20</tspan></text>
<path
         inkscape:connector-curvature="0"
         id="path46"
         style="fill:#999999;fill-opacity:1;fill-rule:nonzero;stroke:#999999;stroke-width:1;stroke-linecap:butt;stroke-linejoin:round;stroke-miterlimit:10;stroke-dasharray:none;stroke-opacity:1"
         d="m 400,54 0,-5" /><text
         id="text48"
         style="font-variant:normal;font-weight:normal;font-size:15.94022369px;font-family:LMRoman17;-inkscape-font-specification:LMRoman17-Regular;writing-mode:lr-tb;fill:#000000;fill-opacity:1;fill-rule:nonzero;stroke:none"
         transform="matrix(1,0,0,-1,392.68945,31.109352)"><tspan
           id="tspan50"
           sodipodi:role="line"
           y="0"
           x="0 7.3006225">25</tspan></text>
<path
         inkscape:connector-curvature="0"
         id="path52"
         style="fill:#999999;fill-opacity:1;fill-rule:nonzero;stroke:#999999;stroke-width:1;stroke-linecap:butt;stroke-linejoin:round;stroke-miterlimit:10;stroke-dasharray:none;stroke-opacity:1"
         d="m 462,54 0,-5" /><text
         id="text54"
         style="font-variant:normal;font-weight:normal;font-size:15.94022369px;font-family:LMRoman17;-inkscape-font-specification:LMRoman17-Regular;writing-mode:lr-tb;fill:#000000;fill-opacity:1;fill-rule:nonzero;stroke:none"
         transform="matrix(1,0,0,-1,454.68945,31.109352)"><tspan
           id="tspan56"
           sodipodi:role="line"
           y="0"
           x="0 7.3006225">30</tspan></text>
<path
         inkscape:connector-curvature="0"
         id="path58"
         style="fill:#999999;fill-opacity:1;fill-rule:nonzero;stroke:#999999;stroke-width:1;stroke-linecap:butt;stroke-linejoin:round;stroke-miterlimit:10;stroke-dasharray:none;stroke-opacity:1"
         d="m 524,54 0,-5" /><text
         id="text60"
         style="font-variant:normal;font-weight:normal;font-size:15.94022369px;font-family:LMRoman17;-inkscape-font-specification:LMRoman17-Regular;writing-mode:lr-tb;fill:#000000;fill-opacity:1;fill-rule:nonzero;stroke:none"
         transform="matrix(1,0,0,-1,516.68945,31.109352)"><tspan
           id="tspan62"
           sodipodi:role="line"
           y="0"
           x="0 7.3006225">35</tspan></text>
<path
         inkscape:connector-curvature="0"
         id="path64"
         style="fill:#999999;fill-opacity:1;fill-rule:nonzero;stroke:#999999;stroke-width:1;stroke-linecap:butt;stroke-linejoin:round;stroke-miterlimit:10;stroke-dasharray:none;stroke-opacity:1"
         d="m 586,54 0,-5" /><text
         id="text66"
         style="font-variant:normal;font-weight:normal;font-size:15.94022369px;font-family:LMRoman17;-inkscape-font-specification:LMRoman17-Regular;writing-mode:lr-tb;fill:#000000;fill-opacity:1;fill-rule:nonzero;stroke:none"
         transform="matrix(1,0,0,-1,578.68945,31.109352)"><tspan
           id="tspan68"
           sodipodi:role="line"
           y="0"
           x="0 7.3006225">40</tspan></text>
<path
         inkscape:connector-curvature="0"
         id="path70"
         style="fill:#999999;fill-opacity:1;fill-rule:nonzero;stroke:#999999;stroke-width:1;stroke-linecap:butt;stroke-linejoin:round;stroke-miterlimit:10;stroke-dasharray:none;stroke-opacity:1"
         d="m 648,54 0,-5" /><text
         id="text72"
         style="font-variant:normal;font-weight:normal;font-size:15.94022369px;font-family:LMRoman17;-inkscape-font-specification:LMRoman17-Regular;writing-mode:lr-tb;fill:#000000;fill-opacity:1;fill-rule:nonzero;stroke:none"
         transform="matrix(1,0,0,-1,640.68945,31.109352)"><tspan
           id="tspan74"
           sodipodi:role="line"
           y="0"
           x="0 7.3006225">45</tspan></text>
<path
         inkscape:connector-curvature="0"
         id="path76"
         style="fill:#999999;fill-opacity:1;fill-rule:nonzero;stroke:#999999;stroke-width:1;stroke-linecap:butt;stroke-linejoin:round;stroke-miterlimit:10;stroke-dasharray:none;stroke-opacity:1"
         d="m 90,54 -5,0" /><text
         id="text78"
         style="font-style:italic;font-variant:normal;font-weight:normal;font-size:15.94022369px;font-family:LMMathSymbols10;-inkscape-font-specification:LMMathSymbols10-Regular;writing-mode:lr-tb;fill:#000000;fill-opacity:1;fill-rule:nonzero;stroke:none"
         transform="matrix(1,0,0,-1,50.980899,50.104878)"><tspan
           id="tspan80"
           y="0"
           x="0">−</tspan></text>
<text
         id="text82"
         style="font-variant:normal;font-weight:normal;font-size:15.94022369px;font-family:LMRoman17;-inkscape-font-specification:LMRoman17-Regular;writing-mode:lr-tb;fill:#000000;fill-opacity:1;fill-rule:nonzero;stroke:none"
         transform="matrix(1,0,0,-1,63.378895,50.104878)"><tspan
           id="tspan84"
           sodipodi:role="line"
           y="0"
           x="0 7.3006225">80</tspan></text>
<path
         inkscape:connector-curvature="0"
         id="path86"
         style="fill:#999999;fill-opacity:1;fill-rule:nonzero;stroke:#999999;stroke-width:1;stroke-linecap:butt;stroke-linejoin:round;stroke-miterlimit:10;stroke-dasharray:none;stroke-opacity:1"
         d="m 90,115.71429 -5,0" /><text
         id="text88"
         style="font-style:italic;font-variant:normal;font-weight:normal;font-size:15.94022369px;font-family:LMMathSymbols10;-inkscape-font-specification:LMMathSymbols10-Regular;writing-mode:lr-tb;fill:#000000;fill-opacity:1;fill-rule:nonzero;stroke:none"
         transform="matrix(1,0,0,-1,50.980899,111.81916)"><tspan
           id="tspan90"
           y="0"
           x="0">−</tspan></text>
<text
         id="text92"
         style="font-variant:normal;font-weight:normal;font-size:15.94022369px;font-family:LMRoman17;-inkscape-font-specification:LMRoman17-Regular;writing-mode:lr-tb;fill:#000000;fill-opacity:1;fill-rule:nonzero;stroke:none"
         transform="matrix(1,0,0,-1,63.378895,111.81916)"><tspan
           id="tspan94"
           sodipodi:role="line"
           y="0"
           x="0 7.3006225">60</tspan></text>
<path
         inkscape:connector-curvature="0"
         id="path96"
         style="fill:#999999;fill-opacity:1;fill-rule:nonzero;stroke:#999999;stroke-width:1;stroke-linecap:butt;stroke-linejoin:round;stroke-miterlimit:10;stroke-dasharray:none;stroke-opacity:1"
         d="m 90,177.42857 -5,0" /><text
         id="text98"
         style="font-style:italic;font-variant:normal;font-weight:normal;font-size:15.94022369px;font-family:LMMathSymbols10;-inkscape-font-specification:LMMathSymbols10-Regular;writing-mode:lr-tb;fill:#000000;fill-opacity:1;fill-rule:nonzero;stroke:none"
         transform="matrix(1,0,0,-1,50.980899,173.53345)"><tspan
           id="tspan100"
           y="0"
           x="0">−</tspan></text>
<text
         id="text102"
         style="font-variant:normal;font-weight:normal;font-size:15.94022369px;font-family:LMRoman17;-inkscape-font-specification:LMRoman17-Regular;writing-mode:lr-tb;fill:#000000;fill-opacity:1;fill-rule:nonzero;stroke:none"
         transform="matrix(1,0,0,-1,63.378895,173.53345)"><tspan
           id="tspan104"
           sodipodi:role="line"
           y="0"
           x="0 7.3006225">40</tspan></text>
<path
         inkscape:connector-curvature="0"
         id="path106"
         style="fill:#999999;fill-opacity:1;fill-rule:nonzero;stroke:#999999;stroke-width:1;stroke-linecap:butt;stroke-linejoin:round;stroke-miterlimit:10;stroke-dasharray:none;stroke-opacity:1"
         d="m 90,239.14286 -5,0" /><text
         id="text108"
         style="font-style:italic;font-variant:normal;font-weight:normal;font-size:15.94022369px;font-family:LMMathSymbols10;-inkscape-font-specification:LMMathSymbols10-Regular;writing-mode:lr-tb;fill:#000000;fill-opacity:1;fill-rule:nonzero;stroke:none"
         transform="matrix(1,0,0,-1,50.980899,235.24773)"><tspan
           id="tspan110"
           y="0"
           x="0">−</tspan></text>
<text
         id="text112"
         style="font-variant:normal;font-weight:normal;font-size:15.94022369px;font-family:LMRoman17;-inkscape-font-specification:LMRoman17-Regular;writing-mode:lr-tb;fill:#000000;fill-opacity:1;fill-rule:nonzero;stroke:none"
         transform="matrix(1,0,0,-1,63.378895,235.24773)"><tspan
           id="tspan114"
           sodipodi:role="line"
           y="0"
           x="0 7.3006225">20</tspan></text>
<path
         inkscape:connector-curvature="0"
         id="path116"
         style="fill:#999999;fill-opacity:1;fill-rule:nonzero;stroke:#999999;stroke-width:1;stroke-linecap:butt;stroke-linejoin:round;stroke-miterlimit:10;stroke-dasharray:none;stroke-opacity:1"
         d="m 90,300.85714 -5,0" /><text
         id="text118"
         style="font-variant:normal;font-weight:normal;font-size:15.94022369px;font-family:LMRoman17;-inkscape-font-specification:LMRoman17-Regular;writing-mode:lr-tb;fill:#000000;fill-opacity:1;fill-rule:nonzero;stroke:none"
         transform="matrix(1,0,0,-1,70.689448,296.96202)"><tspan
           id="tspan120"
           y="0"
           x="0">0</tspan></text>
<path
         inkscape:connector-curvature="0"
         id="path122"
         style="fill:#999999;fill-opacity:1;fill-rule:nonzero;stroke:#999999;stroke-width:1;stroke-linecap:butt;stroke-linejoin:round;stroke-miterlimit:10;stroke-dasharray:none;stroke-opacity:1"
         d="m 90,362.57143 -5,0" /><text
         id="text124"
         style="font-variant:normal;font-weight:normal;font-size:15.94022369px;font-family:LMRoman17;-inkscape-font-specification:LMRoman17-Regular;writing-mode:lr-tb;fill:#000000;fill-opacity:1;fill-rule:nonzero;stroke:none"
         transform="matrix(1,0,0,-1,63.378895,358.67631)"><tspan
           id="tspan126"
           sodipodi:role="line"
           y="0"
           x="0 7.3006225">20</tspan></text>
<path
         inkscape:connector-curvature="0"
         id="path128"
         style="fill:#999999;fill-opacity:1;fill-rule:nonzero;stroke:#999999;stroke-width:1;stroke-linecap:butt;stroke-linejoin:round;stroke-miterlimit:10;stroke-dasharray:none;stroke-opacity:1"
         d="m 90,424.28571 -5,0" /><text
         id="text130"
         style="font-variant:normal;font-weight:normal;font-size:15.94022369px;font-family:LMRoman17;-inkscape-font-specification:LMRoman17-Regular;writing-mode:lr-tb;fill:#000000;fill-opacity:1;fill-rule:nonzero;stroke:none"
         transform="matrix(1,0,0,-1,63.378895,420.39059)"><tspan
           id="tspan132"
           sodipodi:role="line"
           y="0"
           x="0 7.3006225">40</tspan></text>
<path
         inkscape:connector-curvature="0"
         id="path134"
         style="fill:#999999;fill-opacity:1;fill-rule:nonzero;stroke:#999999;stroke-width:1;stroke-linecap:butt;stroke-linejoin:round;stroke-miterlimit:10;stroke-dasharray:none;stroke-opacity:1"
         d="m 90,486 -5,0" /><text
         id="text136"
         style="font-variant:normal;font-weight:normal;font-size:15.94022369px;font-family:LMRoman17;-inkscape-font-specification:LMRoman17-Regular;writing-mode:lr-tb;fill:#000000;fill-opacity:1;fill-rule:nonzero;stroke:none"
         transform="matrix(1,0,0,-1,63.378895,482.10488)"><tspan
           id="tspan138"
           sodipodi:role="line"
           y="0"
           x="0 7.3006225">60</tspan></text>
<path
         inkscape:connector-curvature="0"
         id="path140"
         style="fill:none;stroke:#999999;stroke-width:1;stroke-linecap:square;stroke-linejoin:miter;stroke-miterlimit:10;stroke-dasharray:none;stroke-opacity:1"
         d="m 90,54 558,0" /><path
         inkscape:connector-curvature="0"
         id="path142"
         style="fill:none;stroke:#999999;stroke-width:1;stroke-linecap:square;stroke-linejoin:miter;stroke-miterlimit:10;stroke-dasharray:none;stroke-opacity:1"
         d="m 90,54 0,432" /><g
         id="g144"><g
           clip-path="url(#clipPath148)"
           id="g146"><path
             inkscape:connector-curvature="0"
             id="path152"
             style="color:#000000;clip-rule:nonzero;display:inline;overflow:visible;visibility:visible;opacity:1;isolation:auto;mix-blend-mode:normal;color-interpolation:sRGB;color-interpolation-filters:linearRGB;solid-color:#000000;solid-opacity:1;fill:none;fill-opacity:1;fill-rule:nonzero;stroke:#f9ba32;stroke-width:4.33330393;stroke-linecap:round;stroke-linejoin:round;stroke-miterlimit:4;stroke-dasharray:none;stroke-dashoffset:0;stroke-opacity:1;color-rendering:auto;image-rendering:auto;shape-rendering:auto;text-rendering:auto;enable-background:accumulate"
             d="m 90,100.28571 0.31,0.35521 0.31,0.29359 0.93,0.61971 1.24,0.4565 1.55,0.26969 2.17,0.1214 3.72,-0.0503 8.37,-0.3929 32.24,-1.63225 11.16,-0.339419 2.17,5.104749 2.79,5.97819 6.2,13.05947 1.86,4.60918 1.55,4.50792 1.24,4.31049 1.24,5.27959 0.93,4.90611 0.93,6.10796 0.93,7.88513 0.93,10.61394 0.62,9.35743 0.62,12.03338 0.62,15.81905 0.62,21.17446 0.62,28.52146 0.62,37.56333 1.55,106.95487 0.31,11.98092 0.31,6.95679 0.31,3.16228 0.31,0.83644 0.31,-0.42117 0.31,-1.1121 0.62,-3.43101 0.93,-7.12108 1.24,-12.0415 1.55,-17.78646 2.48,-31.69281 4.96,-64.00856 3.1,-36.90549 3.72,-41.40666 2.79,-31.54539 1.55,-19.59361 1.55,-22.40459 3.1,-47.758621 0.93,-9.633772 0.62,-4.288659 0.62,-2.831974 0.62,-1.747245 0.62,-1.01664 0.62,-0.556032 0.62,-0.276586 0.93,-0.125019 1.24,0.0905 2.48,0.473725 4.65,1.158521 5.58,1.621175 5.58,1.858478 5.58,2.093307 5.89,2.451327 6.2,2.819837 7.13,3.488581 9.61,4.970993 21.7,11.308524 9.92,4.85915 11.16,5.20317 15.5,7.218 5.27,2.70891 4.03,2.31547 3.1,2.02596 2.48,1.85826 2.17,1.88002 1.86,1.87934 1.86,2.2291 1.55,2.23235 1.24,2.12483 1.24,2.53435 1.24,3.09278 0.93,2.81726 0.93,3.39385 0.93,4.16889 0.93,5.23575 0.93,6.74354 0.93,8.93556 0.93,12.21188 0.62,10.77781 0.62,13.70776 0.62,17.55399 0.62,22.39849 0.93,43.78405 1.55,78.81968 0.62,17.28931 0.31,4.43027 0.31,2.23324 0.31,0.60194 0.31,-0.55428 0.31,-1.36819 0.62,-4.35277 0.93,-9.01822 1.24,-14.65752 2.17,-28.85167 4.34,-58.00024 2.79,-34.17327 3.41,-38.77589 3.1,-35.63567 1.55,-20.09837 1.55,-22.7648 2.48,-37.372917 0.93,-10.234142 0.62,-4.834189 0.62,-3.36167 0.62,-2.188838 0.62,-1.348832 0.62,-0.789713 0.62,-0.434041 0.93,-0.264837 1.24,0.006 1.86,0.304576 3.41,0.824051 5.27,1.508535 5.58,1.83305 5.58,2.068736 5.89,2.427132 6.2,2.797541 7.13,3.46835 9.3,4.791371 16.12,8.462744 1.24,-2.295652 1.55,-2.377894 1.55,-1.940676 1.55,-1.584346 1.55,-1.287048 1.55,-1.036387 1.86,-0.966723 1.86,-0.716513 2.17,-0.579824 2.17,-0.358839 2.48,-0.19774 3.1,-0.0043 3.41,0.223728 4.34,0.523534 5.58,0.922234 7.75,1.527344 31.62,6.455707 10.54,1.813733 9.92,1.481525 9.61,1.214142 9.61,0.990339 9.61,0.764799 9.61,0.54286 9.92,0.33923 10.54,0.1393 12.09,-0.0685 15.81,-0.32918 3.1,-0.0817 0,0" /></g></g><g
         id="g164"><g
           clip-path="url(#clipPath168)"
           id="g166"><path
             inkscape:connector-curvature="0"
             id="path172"
             style="color:#000000;clip-rule:nonzero;display:inline;overflow:visible;visibility:visible;opacity:1;isolation:auto;mix-blend-mode:normal;color-interpolation:sRGB;color-interpolation-filters:linearRGB;solid-color:#000000;solid-opacity:1;fill:none;fill-opacity:1;fill-rule:nonzero;stroke:#e50000;stroke-width:4.33330393;stroke-linecap:round;stroke-linejoin:round;stroke-miterlimit:4;stroke-dasharray:none;stroke-dashoffset:0;stroke-opacity:1;color-rendering:auto;image-rendering:auto;shape-rendering:auto;text-rendering:auto;enable-background:accumulate"
             d="m 90,100.28571 0.31,0.56833 0.31,0.46368 0.62,0.69578 0.93,0.65963 0.93,0.3815 1.24,0.2633 1.86,0.11897 2.79,-0.0928 4.96,-0.4263 28.83,-2.78424 8.37,-0.432889 8.99,-0.239594 1.86,-0.02453 1.86,4.326693 2.17,4.42213 3.41,6.31756 3.1,5.86277 1.86,3.9987 1.55,3.90917 1.24,3.74431 1.24,4.60012 0.93,4.29206 0.93,5.37105 0.93,6.98622 0.62,5.9807 0.62,7.51504 0.62,9.69167 0.62,12.85852 0.62,17.56775 0.62,24.63179 0.62,34.91447 0.62,47.80871 0.93,80.99452 0.31,18.20358 0.31,10.14733 0.31,4.04971 0.31,1.10472 0.31,-0.0469 0.31,-0.69583 0.62,-2.68362 0.62,-3.89709 0.93,-7.49954 1.24,-12.29227 1.55,-17.88062 2.48,-31.5864 5.27,-67.49625 3.41,-40.25426 5.89,-67.97002 1.55,-21.57134 1.24,-20.26361 3.1,-53.418136 0.62,-6.174649 0.62,-3.83364 0.62,-2.081106 0.62,-1.002977 0.62,-0.42577 0.62,-0.142402 1.24,0.04293 2.79,0.44672 5.89,1.188744 5.89,1.414173 5.89,1.648983 5.89,1.887195 5.89,2.11773 6.51,2.584498 7.13,3.073456 9.3,4.264683 22.94,10.622978 8.99,3.84976 8.37,3.3462 8.68,3.2328 9.61,3.33474 11.47,3.73259 22.01,7.08829 5.27,1.97615 3.72,1.62144 2.79,1.43278 2.48,1.52369 1.86,1.37481 1.86,1.66723 1.55,1.7087 1.24,1.66051 1.24,2.02021 1.24,2.51745 0.93,2.33714 0.93,2.86444 0.93,3.58344 0.93,4.59039 0.93,6.045 0.93,8.22174 0.62,7.25728 0.62,9.29519 0.62,12.12832 0.62,16.09534 0.62,21.59166 0.62,28.81815 0.93,57.69404 0.93,57.94639 0.62,20.76433 0.31,4.41384 0.31,1.90319 0.31,0.35939 0.31,-0.62105 0.31,-1.30614 0.62,-4.05623 0.93,-8.49787 1.24,-14.07661 1.86,-24.09435 5.89,-78.03831 3.1,-37.26145 5.58,-65.89046 1.55,-22.30948 1.55,-26.37764 1.86,-32.629183 0.62,-8.286799 0.62,-5.972761 0.62,-3.766131 0.62,-2.097266 0.62,-1.045936 0.62,-0.464159 0.62,-0.167441 0.93,-0.0047 2.17,0.318378 5.27,1.072393 5.89,1.420444 5.89,1.655595 5.89,1.893675 5.89,2.123689 6.2,2.461439 0.93,-1.715585 0.93,-1.184437 0.93,-0.806629 0.93,-0.535253 1.24,-0.417062 1.24,-0.184033 1.55,-0.01588 2.17,0.223071 3.1,0.587237 4.65,1.152943 7.44,2.108823 17.67,5.323019 13.02,3.785794 9.92,2.658153 9.3,2.262482 8.99,1.95457 8.68,1.661786 8.68,1.437606 8.68,1.213247 8.68,0.990171 8.68,0.77034 8.99,0.5735 9.3,0.36849 9.92,0.17102 11.78,-0.0305 16.43,-0.29034 1.86,-0.0408 0,0" /></g></g><g
         id="g154"><g
           clip-path="url(#clipPath158)"
           id="g156"><path
             inkscape:connector-curvature="0"
             id="path162"
             style="color:#000000;clip-rule:nonzero;display:inline;overflow:visible;visibility:visible;opacity:1;isolation:auto;mix-blend-mode:normal;color-interpolation:sRGB;color-interpolation-filters:linearRGB;solid-color:#000000;solid-opacity:1;fill:none;fill-opacity:1;fill-rule:nonzero;stroke:#426e86;stroke-width:4.33330393;stroke-linecap:round;stroke-linejoin:round;stroke-miterlimit:4;stroke-dasharray:none;stroke-dashoffset:0;stroke-opacity:1;color-rendering:auto;image-rendering:auto;shape-rendering:auto;text-rendering:auto;enable-background:accumulate"
             d="m 90,100.28571 1.24,0.33528 1.86,0.22991 3.1,0.12529 7.44,0.0156 36.89,-0.28254 11.47,-0.097 4.34,10.4831 7.44,17.81238 2.48,6.63984 1.86,5.64662 1.55,5.43617 1.24,5.07277 1.24,6.01106 1.24,7.37078 0.93,6.80352 0.93,8.34396 0.93,10.47618 0.93,13.44869 0.93,17.5658 0.93,23.06696 0.93,29.71541 1.24,48.6428 1.24,47.68887 0.62,17.7951 0.62,12.07336 0.62,6.66702 0.31,1.62146 0.31,0.67947 0.31,-0.12002 0.31,-0.79186 0.62,-3.17604 0.62,-4.75751 0.93,-9.12328 1.55,-18.31641 2.79,-36.75172 3.41,-44.3427 2.48,-29.67673 2.48,-27.20174 2.79,-28.04514 5.27,-49.72048 4.34,-40.53485 1.24,-9.78953 1.24,-8.072848 0.93,-4.827979 0.93,-3.837331 0.93,-2.975097 0.93,-2.26346 0.93,-1.694923 0.93,-1.248323 0.93,-0.899703 0.93,-0.62747 1.24,-0.512627 1.24,-0.234156 1.55,-0.0087 1.55,0.219308 1.86,0.476835 2.48,0.888511 3.1,1.385487 3.72,1.933942 4.34,2.516597 5.27,3.327456 6.2,4.189152 8.06,5.734359 14.26,10.47617 16.74,12.49696 5.89,4.67842 4.34,3.73206 3.41,3.22587 2.79,2.93419 2.48,2.93021 2.17,2.91139 1.86,2.84789 1.86,3.28798 1.55,3.18877 1.55,3.73421 1.24,3.50196 1.24,4.09851 1.24,4.87171 1.24,5.88554 1.24,7.22684 1.24,9.00724 0.93,8.25846 0.93,9.8491 0.93,11.71011 1.24,18.80895 1.55,28.10644 2.17,39.96196 0.93,12.85385 0.62,6.11379 0.62,3.97025 0.31,1.18606 0.31,0.67314 0.31,0.18324 0.31,-0.27904 0.31,-0.71048 0.62,-2.58329 0.62,-3.9093 0.93,-7.78991 1.24,-12.81909 2.17,-25.47962 3.41,-39.95515 2.48,-26.35482 2.48,-24.03716 4.03,-36.50094 3.1,-26.80663 1.55,-11.88268 1.24,-8.10271 1.24,-6.608595 0.93,-3.973804 0.93,-3.206902 0.93,-2.541871 0.93,-1.985415 0.93,-1.529813 0.93,-1.16095 0.93,-0.863519 0.93,-0.623553 1.24,-0.53572 1.24,-0.272256 1.55,-0.06092 1.55,0.171923 1.86,0.432425 2.17,0.732035 2.79,1.196723 3.41,1.734346 4.03,2.315573 4.96,3.122683 6.2,4.187543 8.37,5.947827 21.7,15.82309 9.92,7.39359 5.27,4.18312 4.03,3.46569 3.41,3.23294 2.79,2.95523 2.17,2.57297 1.24,-1.40668 1.86,-1.74617 4.65,-4.19669 2.17,-2.32541 2.17,-2.65114 2.48,-3.40299 3.1,-4.66718 7.75,-11.87235 2.79,-3.77755 2.48,-3.00669 2.48,-2.66338 2.48,-2.331364 2.48,-2.023232 2.48,-1.744473 2.48,-1.496201 2.79,-1.422741 2.79,-1.18331 3.1,-1.074387 3.41,-0.934525 3.72,-0.773351 4.03,-0.599691 4.34,-0.421076 4.96,-0.253263 5.58,-0.0573 6.51,0.164818 7.75,0.434037 9.3,0.755937 12.09,1.220051 19.22,2.194024 33.17,3.780834 18.29,1.84874 1.55,0.14562 0,0" /></g></g></g><g
       id="g4854"
       transform="translate(21.170428,25.444457)"><text
         transform="matrix(0,1,1,0,0,0)"
         style="font-variant:normal;font-weight:normal;font-size:15.94022369px;line-height:125%;font-family:LMRoman17;-inkscape-font-specification:LMRoman17-Regular;writing-mode:lr-tb;fill:#000000;fill-opacity:1;fill-rule:nonzero;stroke:none"
         id="text346"
         sodipodi:linespacing="125%"
         x="194.92398"
         y="17.85994"><tspan
           x="194.92398"
           y="17.85994"
           sodipodi:role="line"
           id="tspan348"
           style="font-style:normal;font-variant:normal;font-weight:normal;font-stretch:normal;font-size:20px;line-height:125%;font-family:LMRoman17;-inkscape-font-specification:'LMRoman17, Normal';text-align:start;writing-mode:lr-tb;text-anchor:start">Voltage [mv]</tspan></text>
</g><g
       id="g152"
       transform="matrix(0.98212315,0,0,0.98212315,39.790259,7.260569)"><text
         transform="scale(1,-1)"
         style="font-variant:normal;font-weight:normal;font-size:15.94022369px;line-height:125%;font-family:LMRoman17;-inkscape-font-specification:LMRoman17-Regular;writing-mode:lr-tb;fill:#000000;fill-opacity:1;fill-rule:nonzero;stroke:none"
         id="text160"
         x="280.09299"
         y="10.285807"
         sodipodi:linespacing="125%"><tspan
           x="280.09299"
           y="10.285807"
           sodipodi:role="line"
           id="tspan162"
           style="font-style:normal;font-variant:normal;font-weight:normal;font-stretch:normal;font-size:20px;line-height:125%;font-family:LMRoman17;-inkscape-font-specification:'LMRoman17, Normal';text-align:start;writing-mode:lr-tb;text-anchor:start">Time [ms]</tspan></text>
</g><rect
       style="color:#000000;clip-rule:nonzero;display:inline;overflow:visible;visibility:visible;opacity:0.98999999;isolation:auto;mix-blend-mode:normal;color-interpolation:sRGB;color-interpolation-filters:linearRGB;solid-color:#000000;solid-opacity:1;fill:#4dae37;fill-opacity:1;fill-rule:nonzero;stroke:none;stroke-width:1.31459272;stroke-linecap:butt;stroke-linejoin:miter;stroke-miterlimit:10;stroke-dasharray:none;stroke-dashoffset:0;stroke-opacity:1;color-rendering:auto;image-rendering:auto;shape-rendering:auto;text-rendering:auto;enable-background:accumulate"
       id="rect4220"
       width="4.2165656"
       height="417.90851"
       x="313.27014"
       y="-481.09476"
       transform="scale(1,-1)" /></g></svg>